<?xml version="1.0" standalone="no"?>
<!DOCTYPE svg PUBLIC "-//W3C//DTD SVG 1.1//EN" "http://www.w3.org/Graphics/SVG/1.1/DTD/svg11.dtd" >
<svg xmlns="http://www.w3.org/2000/svg">
<metadata></metadata>
<defs>
<font id="BrauerBoldBold" horiz-adv-x="917" >
<font-face units-per-em="2048" ascent="1667" descent="-381" />
<missing-glyph horiz-adv-x="362" />
<glyph horiz-adv-x="0" />
<glyph horiz-adv-x="2048" />
<glyph unicode=" "  horiz-adv-x="362" />
<glyph unicode="&#x09;" horiz-adv-x="362" />
<glyph unicode="&#xa0;" horiz-adv-x="362" />
<glyph unicode="!" horiz-adv-x="571" d="M150 57q0 -25 17 -41t42 -16h151q25 0 42.5 16.5t17.5 40.5v113q0 23 -17.5 40t-42.5 17h-151q-25 0 -42 -17t-17 -40v-113zM150 1114q0 -74 10 -185.5t22.5 -216t36.5 -253.5q0 -23 15.5 -39.5t39.5 -16.5h21q23 0 38 16.5t17 39.5q20 150 32.5 254t25 215.5t12.5 185.5 v281q0 23 -17.5 40t-42.5 17h-151q-25 0 -42 -17.5t-17 -39.5v-281z" />
<glyph unicode="&#x22;" horiz-adv-x="813" d="M119 1036q0 -25 17.5 -41t41.5 -16h70q25 0 42 16.5t17 40.5v359q0 23 -17.5 40t-41.5 17h-70q-25 0 -42 -17.5t-17 -39.5v-359zM504 1036q0 -25 17.5 -41t41.5 -16h70q25 0 42 16.5t17 40.5v359q0 23 -17.5 40t-41.5 17h-70q-25 0 -42 -17.5t-17 -39.5v-359z" />
<glyph unicode="#" horiz-adv-x="1222" d="M78 424q4 -33 49 -35h113l-72 -315q-4 -20 -4 -29q0 -41 43 -43h69q47 -2 64 43l78 344h227l-72 -315q-4 -20 -4 -29q0 -41 43 -43h70q47 -2 63 43l78 344h127q45 0 56 45l18 84q0 6 4 19.5t4 17.5q-4 33 -49 35h-115l66 289h127q45 2 55 45l19 84q0 6 4 19t4 17 q-4 33 -49 35h-115l65 289q4 20 5 29q0 41 -43 43h-70q-25 0 -42 -10.5t-22 -32.5l-71 -318h-228l66 289q4 20 4 29q0 41 -43 43h-70q-25 0 -42 -10.5t-21 -32.5l-72 -318h-125q-45 -2 -55 -45l-18 -84q-2 -6 -5.5 -20.5t-3.5 -16.5q4 -33 50 -34h112l-65 -289h-125 q-45 0 -56 -45l-18 -84q-2 -6 -5 -20.5t-3 -16.5zM463 590l65 289h228l-66 -289h-227z" />
<glyph unicode="$" horiz-adv-x="1222" d="M186 352q0 -166 86 -263t226 -126v-125q0 -25 15 -41t40 -16h117q23 0 39 16.5t16 40.5v127q139 29 224 126t85 261q0 141 -32.5 221t-149.5 156l-266 172q-78 49 -112 82t-34 94v21q0 84 43 133t129 49q84 0 128 -52t44 -130v-45q0 -25 17.5 -41.5t42.5 -16.5h131 q25 0 42 16.5t17 41.5v45q0 166 -87 262t-222 125v123q0 25 -16.5 41t-38.5 16h-117q-25 0 -40 -16.5t-15 -40.5v-123q-145 -31 -228.5 -134.5t-83.5 -265.5q0 -88 30 -176t124 -149l293 -191q63 -43 105 -76.5t42 -103.5v-37q0 -86 -44 -134t-128 -48q-78 0 -125 51 t-47 131v90q0 23 -17.5 40.5t-41.5 17.5h-131q-25 0 -42.5 -17.5t-17.5 -40.5v-90z" />
<glyph unicode="%" horiz-adv-x="1505" d="M111 969q0 -129 86 -191.5t170 -62.5q82 0 169 62.5t87 191.5v229q0 129 -87 191.5t-169 62.5q-84 0 -170 -62.5t-86 -191.5v-229zM268 958v250q0 41 26 71t73 30q45 0 71.5 -30t26.5 -71v-250q0 -43 -26.5 -71.5t-71.5 -28.5q-47 0 -73 28.5t-26 71.5zM348 -106 q0 -33 37 -37h78q23 0 37 8t30 47l568 1483q4 14 4 22q0 33 -35 35h-78q-25 0 -40 -8t-27 -45l-568 -1483q-6 -14 -6 -22zM881 205q0 -129 86 -191.5t170 -62.5q82 0 169 62.5t87 191.5v229q0 129 -87 191.5t-169 62.5q-84 0 -170 -62.5t-86 -191.5v-229zM1038 195v249 q0 41 26 71t73 30q45 0 71.5 -30t26.5 -71v-249q0 -43 -26.5 -72t-71.5 -29q-47 0 -73 29t-26 72z" />
<glyph unicode="&#x26;" horiz-adv-x="1212" d="M94 406q0 -90 23.5 -172t78 -144.5t139.5 -99.5t206 -37q104 0 183 31.5t136 87.5l17 -27q8 -16 23 -30.5t42 -14.5h119q16 0 30.5 11.5t14.5 31.5q2 14 -8 33l-103 162q98 168 117 337v9q0 23 -17.5 40t-41.5 17h-88q-51 -4 -60 -57q-8 -80 -37 -148l-219 340 q106 80 169 164t63 219q0 147 -95.5 242.5t-234.5 95.5q-141 0 -232.5 -93t-91.5 -241q0 -98 40 -171.5t93 -145.5q-117 -74 -191.5 -184.5t-74.5 -255.5zM309 408q0 92 44 155.5t120 108.5l270 -422q-45 -49 -93 -64.5t-103 -15.5q-127 0 -182.5 66.5t-55.5 171.5z M430 1159q0 43 23.5 84t97.5 41t98.5 -44t26.5 -87q0 -66 -30 -115t-109 -100q-45 57 -76 113.5t-31 107.5z" />
<glyph unicode="'" horiz-adv-x="509" d="M119 1036q0 -25 17.5 -41t41.5 -16h70q25 0 42 16.5t17 40.5v359q0 23 -17.5 40t-41.5 17h-70q-25 0 -42 -17.5t-17 -39.5v-359z" />
<glyph unicode="(" horiz-adv-x="673" d="M150 528q0 -240 53 -470t151 -439q16 -35 31.5 -46t38.5 -11h133q35 4 37 37q0 12 -4 18q-37 55 -76 149.5t-70.5 213t-52 260t-20.5 288.5t20.5 286.5t52 260.5t70.5 215t76 150q4 6 4 18q-2 33 -37 37h-133q-23 0 -38 -11t-32 -46q-98 -209 -151 -439.5t-53 -470.5z " />
<glyph unicode=")" horiz-adv-x="673" d="M78 -401q2 -33 37 -37h133q20 0 35.5 11t33.5 46q96 209 150.5 439t54.5 470t-54 470.5t-151 439.5q-18 35 -33.5 46t-35.5 11h-133q-35 -4 -37 -37q0 -12 4 -18q35 -55 73 -149.5t69.5 -215.5t54 -260t22.5 -287q0 -147 -22.5 -288.5t-54 -260t-69.5 -213t-73 -149.5 q-4 -6 -4 -18z" />
<glyph unicode="*" horiz-adv-x="1042" d="M88 1087q0 -23 15.5 -39t39.5 -22q18 -8 66.5 -21.5t144.5 -41.5q-57 -82 -87.5 -125t-43.5 -62q-16 -27 -16 -51q0 -29 29 -45l81 -53q14 -8 29 -11q35 2 62 46q10 16 36.5 59t75.5 127q49 -84 75 -127t38 -59q27 -43 61 -46q14 2 29 11l82 53q29 16 29 45q0 25 -17 51 q-12 18 -44 61.5t-87 125.5q94 29 142.5 42t68.5 21q23 6 39 22.5t16 38.5q0 10 -4 21l-33 92q-18 39 -57 37q-18 0 -35 -6l-205 -84q4 98 7.5 152.5t3.5 76.5q0 29 -14.5 52.5t-45.5 23.5h-98q-31 0 -45 -23.5t-14 -52.5q0 -23 2 -77t8 -152l-205 84q-16 6 -35 6 q-39 2 -57 -37l-33 -92q-4 -10 -4 -21z" />
<glyph unicode="+" horiz-adv-x="1107" d="M57 508q0 -25 16.5 -42t41.5 -17h344v-390q0 -25 17.5 -41t41.5 -16h70q25 0 42 16.5t17 40.5v390h344q23 0 40.5 17t17.5 42v82q0 25 -17.5 42t-40.5 17h-344v389q0 23 -17.5 40.5t-41.5 17.5h-70q-25 0 -42 -17.5t-17 -40.5v-389h-344q-25 0 -41.5 -17.5t-16.5 -41.5 v-82z" />
<glyph unicode="," horiz-adv-x="536" d="M131 55q0 -25 15.5 -40t39.5 -15h72q33 2 37 -45q0 -37 -27.5 -58.5t-52.5 -21.5h-29q-12 0 -21 -11t-9 -28v-24q0 -14 9 -26.5t21 -12.5h29q61 0 123.5 55t62.5 172v172q0 23 -16 39t-37 16h-162q-25 0 -40 -16t-15 -39v-117z" />
<glyph unicode="-" horiz-adv-x="827" d="M57 508q0 -25 16.5 -42t41.5 -17h596q23 0 40 17t17 42v82q0 25 -17.5 42t-39.5 17h-596q-25 0 -41.5 -17.5t-16.5 -41.5v-82z" />
<glyph unicode="." horiz-adv-x="536" d="M131 57q0 -25 17.5 -41t41.5 -16h152q25 0 42 16.5t17 40.5v113q0 23 -17 40t-42 17h-152q-25 0 -42 -17t-17 -40v-113z" />
<glyph unicode="/" horiz-adv-x="837" d="M41 -106q0 -33 37 -37h78q23 0 37 8t30 47l568 1483q4 14 4 22q0 33 -35 35h-78q-25 0 -40 -8t-28 -45l-567 -1483q-6 -14 -6 -22z" />
<glyph unicode="0" horiz-adv-x="1034" d="M106 352q0 -190 118 -292.5t292 -102.5q172 0 291 102.5t119 292.5v746q0 190 -119 292.5t-291 102.5q-174 0 -292 -102.5t-118 -292.5v-746zM342 352v746q0 80 47 131t127 51q78 0 126 -51t48 -131v-746q0 -80 -48 -131t-126 -51q-80 0 -127 51t-47 131z" />
<glyph unicode="1" horiz-adv-x="798" d="M115 1155q0 -25 17.5 -41t41.5 -16h166v-1041q0 -25 17.5 -41t41.5 -16h125q25 0 42.5 16.5t17.5 40.5v1338q0 23 -17.5 40t-42.5 17h-125q-25 0 -37 -12.5t-20 -28.5q-20 -39 -52 -77t-116 -44q-25 0 -42 -17.5t-17 -39.5v-78z" />
<glyph unicode="2" horiz-adv-x="950" d="M80 1073q0 -25 17.5 -41t41.5 -16h111q25 0 42 16.5t17 40.5v23q0 90 46 137t122 47q68 0 120 -40t52 -122q0 -49 -18.5 -81.5t-61.5 -92.5l-442 -612q-16 -23 -26.5 -50.5t-10.5 -78.5v-144q0 -25 16.5 -42t40.5 -17h678q23 0 40.5 17.5t17.5 41.5v107q0 25 -17.5 42 t-40.5 17h-471l449 623q55 78 68.5 140.5t13.5 131.5q0 184 -126 278.5t-282 94.5q-162 0 -279.5 -97.5t-117.5 -275.5v-47z" />
<glyph unicode="3" horiz-adv-x="972" d="M68 352q0 -199 117.5 -297t289.5 -98q166 0 287 96.5t121 298.5v113q0 98 -20.5 177t-141.5 122q98 53 118.5 111.5t20.5 156.5v117q0 145 -111.5 244.5t-273.5 99.5q-164 0 -274.5 -100.5t-110.5 -243.5v-70q0 -25 17.5 -41t42.5 -16h110q25 0 42 16.5t17 40.5v43 q0 66 39 112t117 46q70 0 111 -42t41 -116v-110q0 -57 -37 -93t-92 -36h-47q-25 0 -41.5 -17.5t-16.5 -42.5v-108q0 -25 16.5 -42.5t41.5 -17.5h65q55 0 92 -37.5t37 -93.5v-174q0 -86 -44 -133t-126 -47q-84 0 -128 53t-44 127v31q0 23 -17.5 40t-41.5 17h-117 q-25 0 -42 -17.5t-17 -39.5v-29z" />
<glyph unicode="4" horiz-adv-x="997" d="M33 397q0 -25 16.5 -42t40.5 -17h483v-281q0 -25 17.5 -41t42.5 -16h112q25 0 42.5 16.5t17.5 40.5v281h96q23 0 40 17.5t17 41.5v103q0 25 -17 42t-40 17h-96v836q0 23 -17.5 40t-42.5 17h-266q-25 0 -45 -15.5t-33 -39.5l-344 -795q-14 -33 -19 -52.5t-5 -39.5v-113z M281 563l292 690v-690h-292z" />
<glyph unicode="5" horiz-adv-x="976" d="M94 348q0 -186 112.5 -290.5t285.5 -104.5q164 0 286.5 105.5t122.5 289.5v262q0 207 -83 297t-224 90q-86 0 -160 -39.5t-106 -91.5v363h475q25 0 42 16.5t17 40.5v107q0 23 -17.5 40t-41.5 17h-649q-25 0 -42.5 -17.5t-17.5 -39.5v-770q0 -25 17.5 -41.5t42.5 -16.5 h127q18 0 31.5 13.5t13.5 31.5q0 68 48 111t122 43q80 0 126 -46t46 -132v-238q0 -86 -54.5 -132t-121.5 -46q-74 0 -120 49t-46 129v6q0 23 -17.5 40.5t-42.5 17.5h-112q-25 0 -42.5 -17.5t-17.5 -40.5v-6z" />
<glyph unicode="6" horiz-adv-x="956" d="M94 328q0 -74 29 -140.5t81 -118t122.5 -82t152.5 -30.5q80 0 149.5 30.5t122 82t83 118t30.5 140.5v278q0 145 -70.5 251t-230.5 106q-68 0 -134.5 -29t-102.5 -88v258q0 100 52 138t122 38q66 0 106.5 -40t46.5 -103q0 -25 17.5 -41.5t42.5 -16.5h98q25 0 42 16.5 t17 41.5q-6 139 -99 247.5t-271 108.5t-292 -111.5t-114 -277.5v-776zM326 328v241q0 61 41 109.5t112 48.5q70 0 112 -48t42 -110v-241q0 -63 -42 -110.5t-112 -47.5q-72 0 -112.5 47t-40.5 111z" />
<glyph unicode="7" horiz-adv-x="858" d="M25 1284q0 -25 17 -41t42 -16h477l-420 -1145q-6 -16 -6 -27q0 -27 14.5 -41t32.5 -14h154q23 0 35 16.5t20 38.5l404 1098q6 16 15 51t9 68v123q0 23 -17.5 40t-41.5 17h-676q-25 0 -42 -17.5t-17 -39.5v-111z" />
<glyph unicode="8" horiz-adv-x="980" d="M74 360q0 -211 122.5 -307t292.5 -96q168 0 292 96.5t124 306.5v111q0 117 -38 186.5t-119 118.5q68 39 98.5 108.5t30.5 149.5v127q0 139 -113 235.5t-275 96.5q-164 0 -275.5 -96.5t-111.5 -235.5v-127q0 -80 30 -149.5t99 -108.5q-84 -49 -120.5 -118.5t-36.5 -186.5 v-111zM317 352v127q0 78 47.5 130.5t124.5 52.5q76 0 124.5 -52.5t48.5 -130.5v-127q0 -80 -48.5 -131t-124.5 -51q-78 0 -125 51t-47 131zM332 1040v68q0 78 43 125t114 47q70 0 114 -47t44 -125v-68q0 -80 -44 -125t-114 -45q-72 0 -114.5 45.5t-42.5 124.5z" />
<glyph unicode="9" horiz-adv-x="952" d="M84 313q4 -141 96 -248.5t275 -107.5q178 0 289.5 111.5t111.5 277.5v776q0 70 -30.5 136.5t-82 119t-121 85t-149.5 32.5t-151.5 -32.5t-124 -85t-82 -119t-29.5 -136.5v-256q0 -154 81 -255t220 -101q68 0 133.5 27.5t104.5 89.5v-281q0 -100 -50.5 -138t-119.5 -38 q-78 0 -114 39t-40 104q0 23 -17.5 40.5t-41.5 17.5h-99q-25 0 -42 -17.5t-17 -40.5zM317 897v225q0 61 41 109.5t113 48.5q70 0 112 -48t42 -110v-225q0 -63 -42 -110.5t-112 -47.5q-78 0 -116 44t-38 114z" />
<glyph unicode=":" horiz-adv-x="534" d="M131 57q0 -25 17.5 -41t41.5 -16h152q25 0 42 16.5t17 40.5v113q0 23 -17 40t-42 17h-152q-25 0 -42 -17t-17 -40v-113zM131 770q0 -25 17.5 -41t41.5 -16h152q25 0 42 16t17 41v113q0 23 -17 40t-42 17h-152q-25 0 -42 -17.5t-17 -39.5v-113z" />
<glyph unicode=";" horiz-adv-x="534" d="M131 55q0 -25 15.5 -40t39.5 -15h72q33 2 37 -45q0 -37 -22.5 -58.5t-47.5 -21.5h-26q-12 0 -21.5 -11t-9.5 -28v-24q0 -14 9 -26.5t22 -12.5h26q61 0 118.5 54t57.5 173v172q0 23 -16 39t-37 16h-162q-25 0 -40 -16t-15 -39v-117zM131 770q0 -25 17.5 -41t41.5 -16h152 q25 0 42 16t17 41v113q0 23 -17 40t-42 17h-152q-25 0 -42 -17.5t-17 -39.5v-113z" />
<glyph unicode="&#x3c;" horiz-adv-x="1107" d="M215 479q0 -27 10.5 -39t26.5 -22l567 -408q18 -10 35 -10q35 2 35 41v141q0 23 -10.5 35t-28.5 27l-418 305l418 305q18 12 28.5 24.5t10.5 36.5v142q0 39 -35 41q-16 0 -35 -11l-567 -407q-16 -12 -26.5 -24.5t-10.5 -37.5v-139z" />
<glyph unicode="=" horiz-adv-x="1107" d="M133 293q0 -25 16.5 -42.5t40.5 -17.5h725q23 0 40.5 17.5t17.5 42.5v82q0 25 -17.5 42t-40.5 17h-725q-25 0 -41 -17.5t-16 -41.5v-82zM133 723q0 -25 16.5 -42t40.5 -17h725q23 0 40.5 17t17.5 42v84q0 25 -17.5 42t-40.5 17h-725q-25 0 -41 -17.5t-16 -41.5v-84z" />
<glyph unicode="&#x3e;" horiz-adv-x="1107" d="M215 41q2 -39 35 -41q16 0 35 10l567 408q14 10 25.5 22.5t11.5 38.5v139q0 25 -11.5 37.5t-25.5 24.5l-567 407q-18 10 -35 11q-33 -2 -35 -41v-142q0 -25 9 -37t30 -24l420 -305l-420 -305q-20 -14 -29.5 -26.5t-9.5 -35.5v-141z" />
<glyph unicode="?" horiz-adv-x="954" d="M68 1073q0 -25 18 -41t43 -16h125q25 0 42 16.5t17 40.5v25q0 78 34 130t128 52q92 0 127 -51t35 -135q0 -53 -14.5 -79t-26.5 -42l-227 -256q-37 -41 -45.5 -90t-8.5 -99v-71q0 -25 17.5 -41.5t42.5 -16.5h131q25 0 40 16.5t15 41.5v43q0 47 12.5 80.5t42.5 70.5 l209 244q31 37 45.5 94.5t14.5 116.5q0 193 -120 292t-292 99q-180 0 -292.5 -107.5t-112.5 -283.5v-33zM311 57q0 -25 17.5 -41t42.5 -16h139q25 0 40 16.5t15 40.5v113q0 23 -15 40t-40 17h-139q-25 0 -42.5 -17t-17.5 -40v-113z" />
<glyph unicode="@" horiz-adv-x="1570" d="M78 678q0 -158 47 -294t137 -235.5t219 -157t291 -57.5q72 0 144.5 13.5t133 32t98.5 41t38 42.5q0 6 -5 27t-30 57q-10 12 -18.5 22.5t-22.5 10.5q-18 -2 -47 -20q-49 -25 -112.5 -48.5t-174.5 -23.5q-102 0 -199.5 38t-173 111.5t-120.5 183t-45 251.5q0 129 46 240.5 t124.5 193.5t182 129t216.5 47q231 0 382.5 -134t151.5 -349q0 -137 -67.5 -239.5t-149.5 -102.5q-29 0 -38 15t-9 40q0 20 4 45l80 426q0 8 2 20.5t2 14.5q0 25 -15 35t-32 10h-49q-41 2 -55 -55l-6 -27q-23 39 -67 64.5t-122 25.5q-154 0 -269.5 -128t-115.5 -349 q0 -51 11.5 -105.5t42 -98.5t80.5 -71.5t124 -27.5q51 0 115.5 19.5t105.5 74.5q12 -55 50 -76.5t75 -21.5q182 0 317.5 129t135.5 401q0 139 -55.5 253t-147.5 193.5t-216 125t-265 45.5q-172 0 -308.5 -70t-229.5 -180.5t-142 -243.5t-49 -262zM592 610q0 137 58.5 215 t137.5 78q80 0 111 -32.5t31 -100.5q0 -14 -2 -35.5t-4 -40.5q-25 -106 -76 -169.5t-125 -63.5q-68 0 -99.5 33.5t-31.5 115.5z" />
<glyph unicode="A" horiz-adv-x="1075" d="M37 43q0 -18 12 -30.5t33 -12.5h151q37 4 46 45l61 258h393l62 -258q8 -41 45 -45h151q18 0 31.5 12.5t13.5 30.5q0 6 -6 35l-309 1337q-8 35 -47 37h-275q-39 -2 -47 -37l-309 -1337q-6 -29 -6 -35zM387 516l150 680l149 -680h-299z" />
<glyph unicode="B" horiz-adv-x="1034" d="M113 57q0 -25 17 -41t42 -16h522q121 0 192.5 84t71.5 184v238q0 82 -42 162t-152 100q78 27 113.5 87t35.5 140v191q0 98 -72.5 182t-187.5 84h-481q-25 0 -42 -17.5t-17 -39.5v-1338zM358 207v448h203q61 0 98 -36.5t37 -98.5v-178q0 -61 -36.5 -98t-98.5 -37h-203z M358 854v389h191q61 0 98 -37t37 -96v-121q0 -61 -37 -98t-98 -37h-191z" />
<glyph unicode="C" horiz-adv-x="1009" d="M94 358q0 -193 122 -296t300 -103q176 0 299 103.5t123 295.5v35q0 23 -17.5 40.5t-41.5 17.5h-131q-25 0 -42.5 -17.5t-17.5 -40.5v-35q0 -80 -48 -131t-124 -51q-80 0 -126 51.5t-46 130.5v740q0 78 47 130t125 52t125 -51t47 -131v-35q0 -25 17.5 -41t42.5 -16h131 q25 0 42 16t17 41v35q0 190 -123 294.5t-299 104.5q-178 0 -300 -104.5t-122 -294.5v-740z" />
<glyph unicode="D" horiz-adv-x="1042" d="M111 57q0 -25 17 -41t42 -16h489q109 0 196 79t87 187v920q0 106 -87 186t-196 80h-489q-25 0 -42 -17.5t-17 -39.5v-1338zM362 209v1034h193q61 0 97 -38t36 -107v-746q0 -72 -36 -107.5t-97 -35.5h-193z" />
<glyph unicode="E" horiz-adv-x="937" d="M113 57q0 -25 17 -41t42 -16h641q23 0 40 17.5t17 41.5v99q0 25 -17 42t-40 17h-448v440h376q23 0 40.5 17.5t17.5 42.5v96q0 25 -17.5 42t-40.5 17h-376v363h438q23 0 40 17.5t17 41.5v99q0 25 -17.5 42t-39.5 17h-631q-25 0 -42 -17.5t-17 -39.5v-1338z" />
<glyph unicode="F" horiz-adv-x="909" d="M113 57q0 -25 17 -41t42 -16h135q23 0 40.5 17.5t17.5 41.5v598h376q23 0 40.5 17.5t17.5 42.5v96q0 25 -17.5 42t-40.5 17h-376v363h438q23 0 40 17.5t17 41.5v99q0 25 -17.5 42t-39.5 17h-631q-25 0 -42 -17.5t-17 -39.5v-1338z" />
<glyph unicode="G" horiz-adv-x="1044" d="M94 358q0 -215 101.5 -307t230.5 -92q74 0 143.5 30.5t118.5 98.5v-29q0 -25 16.5 -42t40.5 -17h138q23 0 40 17.5t17 41.5v727q0 25 -17.5 42.5t-39.5 17.5h-318q-25 0 -41 -17.5t-16 -42.5v-96q0 -25 16.5 -42t40.5 -17h123v-273q0 -80 -47 -131t-125 -51 q-80 0 -126 51.5t-46 130.5v740q0 80 46 131t126 51q78 0 125 -51t47 -131v-35q0 -25 17.5 -41t42.5 -16h131q25 0 42 16t17 41v35q0 190 -123 294.5t-299 104.5q-178 0 -300 -104.5t-122 -294.5v-740z" />
<glyph unicode="H" horiz-adv-x="1075" d="M113 57q0 -25 17 -41t42 -16h133q25 0 42.5 16.5t17.5 40.5v590h344v-590q0 -25 17 -41t42 -16h133q25 0 42.5 16.5t17.5 40.5v1338q0 23 -17.5 40t-42.5 17h-133q-25 0 -42 -17.5t-17 -39.5v-533h-344v533q0 23 -17.5 40t-42.5 17h-133q-25 0 -42 -17.5t-17 -39.5v-1338 z" />
<glyph unicode="I" horiz-adv-x="479" d="M113 57q0 -25 17 -41t42 -16h133q25 0 42.5 16.5t17.5 40.5v1338q0 23 -17.5 40t-42.5 17h-133q-25 0 -42 -17.5t-17 -39.5v-1338z" />
<glyph unicode="J" horiz-adv-x="960" d="M35 358q0 -188 116.5 -293.5t292.5 -105.5t293 104.5t117 294.5v1037q0 23 -17.5 40t-41.5 17h-131q-25 0 -42.5 -17.5t-17.5 -39.5v-1037q0 -80 -40 -131t-120 -51t-118.5 51.5t-38.5 130.5v66q0 23 -17.5 40t-42.5 17h-133q-25 0 -42 -17.5t-17 -39.5v-66z" />
<glyph unicode="K" horiz-adv-x="1005" d="M113 57q0 -25 17 -41t42 -16h133q25 0 42.5 16.5t17.5 40.5v650l331 -648q10 -23 27.5 -41t42.5 -18h152q57 2 59 47v6q0 12 -6 27l-363 715l310 579q12 27 12 43q0 23 -19.5 29t-42.5 6h-139q-25 0 -38 -17.5t-25 -39.5l-301 -543v543q0 23 -17.5 40t-42.5 17h-133 q-25 0 -42 -17.5t-17 -39.5v-1338z" />
<glyph unicode="L" horiz-adv-x="851" d="M104 57q0 -25 17.5 -41t42.5 -16h573q25 0 42.5 16.5t17.5 40.5v103q0 23 -17.5 40t-42.5 17h-381v1178q0 23 -17 40t-42 17h-133q-25 0 -42.5 -17.5t-17.5 -39.5v-1338z" />
<glyph unicode="M" horiz-adv-x="1398" d="M123 57q0 -25 17.5 -41t41.5 -16h111q25 0 42 16.5t17 40.5v1098l250 -1098q4 -25 19.5 -41t40.5 -16h73q25 0 39 16.5t21 40.5l249 1098v-1098q0 -25 17.5 -41t42.5 -16h110q25 0 42.5 16.5t17.5 40.5v1338q0 23 -17.5 40t-42.5 17h-262q-25 0 -40 -17.5t-19 -39.5 l-195 -885l-194 885q-6 23 -20.5 40t-39.5 17h-262q-25 0 -42 -17.5t-17 -39.5v-1338z" />
<glyph unicode="N" horiz-adv-x="1150" d="M102 57q0 -25 17.5 -41t42.5 -16h133q25 0 42 16.5t17 40.5v908l400 -908q8 -23 21 -40t44 -17h168q25 0 42.5 16.5t17.5 40.5v1336q0 23 -17.5 40t-42.5 17h-133q-25 0 -42 -17.5t-17 -39.5v-906l-400 908q-10 20 -22.5 38.5t-42.5 18.5h-168q-25 0 -42.5 -17.5 t-17.5 -39.5v-1338z" />
<glyph unicode="O" horiz-adv-x="1034" d="M94 358q0 -193 122 -296t300 -103q176 0 299 103.5t123 295.5v740q0 190 -123 294.5t-299 104.5q-178 0 -300 -104.5t-122 -294.5v-740zM344 358v740q0 80 46 131t126 51q78 0 125 -51t47 -131v-740q0 -80 -47 -131t-125 -51q-80 0 -126 51.5t-46 130.5z" />
<glyph unicode="P" horiz-adv-x="997" d="M111 57q0 -25 17 -41t42 -16h133q25 0 42 16.5t17 40.5v473h334q102 0 167 67t65 171v418q0 111 -76 188.5t-188 77.5h-494q-25 0 -42 -17.5t-17 -39.5v-1338zM362 739v504h187q61 0 94 -28.5t33 -106.5v-236q0 -80 -33 -106.5t-94 -26.5h-187z" />
<glyph unicode="Q" horiz-adv-x="1073" d="M94 356q0 -182 110.5 -289.5t274.5 -107.5h449q23 0 45 16.5t33 36.5l51 103q6 16 6 22q-2 31 -37 33h-127q39 78 39 182v746q0 190 -123 294.5t-299 104.5q-178 0 -300 -104.5t-122 -294.5v-742zM344 352v746q0 80 46 131t126 51q78 0 125 -51t47 -131v-746 q0 -80 -47 -131t-125 -51q-80 0 -126 51t-46 131z" />
<glyph unicode="R" horiz-adv-x="1044" d="M113 57q0 -25 17 -41t42 -16h133q25 0 42.5 16.5t17.5 40.5v566h200q61 0 101.5 -37t40.5 -99v-430q0 -25 17 -41t42 -16h133q25 0 42 16.5t17 40.5v389q0 102 -39.5 187.5t-162.5 97.5q98 10 137 81t39 169v205q0 104 -72 185t-188 81h-500q-25 0 -42 -17.5t-17 -39.5 v-1338zM365 831v412h200q61 0 98 -37t37 -96v-143q0 -61 -36.5 -98.5t-98.5 -37.5h-200z" />
<glyph unicode="S" horiz-adv-x="1001" d="M76 358q0 -197 119.5 -298t302.5 -101q188 0 307 102.5t119 296.5q0 141 -33 218t-150 153l-266 172q-78 49 -111.5 82t-33.5 94v21q0 84 43 133t129 49q84 0 128 -52t44 -130v-45q0 -25 17.5 -41.5t41.5 -16.5h131q25 0 42.5 16.5t17.5 41.5v45q0 197 -120 298t-302 101 q-195 0 -310.5 -109.5t-115.5 -302.5q0 -88 29.5 -176t123.5 -149l324 -211q53 -37 85 -67.5t32 -92.5v-31q0 -86 -44 -134t-128 -48q-78 0 -125 51.5t-47 130.5v84q0 23 -17.5 40.5t-42.5 17.5h-131q-25 0 -42 -17.5t-17 -40.5v-84z" />
<glyph unicode="T" horiz-adv-x="942" d="M53 1296q0 -25 16.5 -42t41.5 -17h233v-1180q0 -25 17.5 -41t41.5 -16h134q25 0 42 16.5t17 40.5v1180h233q23 0 40.5 17.5t17.5 41.5v97q0 25 -17.5 42t-40.5 17h-718q-25 0 -41.5 -17.5t-16.5 -41.5v-97z" />
<glyph unicode="U" horiz-adv-x="1052" d="M102 358q0 -193 122 -296t300 -103q176 0 299 103.5t123 295.5v1037q0 23 -17.5 40t-41.5 17h-131q-25 0 -42.5 -17.5t-17.5 -39.5v-1037q0 -80 -47 -131t-125 -51q-80 0 -126 51.5t-46 130.5v1037q0 23 -17.5 40t-41.5 17h-131q-25 0 -42.5 -17.5t-17.5 -39.5v-1037z " />
<glyph unicode="V" horiz-adv-x="1017" d="M35 1403q0 -6 4 -25l250 -1335q2 -18 19.5 -30.5t37.5 -12.5h324q18 0 35.5 12.5t21.5 30.5l250 1335q4 18 4 25q0 20 -15.5 34.5t-35.5 14.5h-131q-25 0 -45.5 -17.5t-24.5 -41.5l-221 -1209l-221 1209q-6 25 -25.5 42t-44.5 17h-131q-23 0 -37 -14.5t-14 -34.5z" />
<glyph unicode="W" horiz-adv-x="1656" d="M47 1405q0 -8 6 -43l226 -1305q4 -25 19 -41t40 -16h231q25 0 39.5 16.5t20.5 40.5l198 1131l199 -1131q4 -25 19.5 -41t39.5 -16h232q25 0 39 16.5t20 40.5l226 1305q6 35 6 43q-2 45 -47 47h-121q-25 0 -44.5 -17.5t-23.5 -41.5l-182 -1094l-176 1096q-4 23 -19.5 40 t-40.5 17h-254q-25 0 -41 -17.5t-18 -39.5l-176 -1096l-182 1094q-6 25 -24.5 42t-43.5 17h-121q-45 -2 -47 -47z" />
<glyph unicode="X" horiz-adv-x="1153" d="M35 47q0 -18 13 -32.5t34 -14.5h154q25 0 41 12.5t36 50.5l262 523l263 -523q18 -39 34.5 -51t42.5 -12h154q18 0 32.5 14.5t14.5 32.5q2 10 -6 25l-348 682l285 626q6 14 6 25q0 18 -13.5 32.5t-33.5 14.5h-138q-27 0 -40 -12.5t-31 -50.5l-222 -447l-221 447 q-20 39 -33.5 51t-37.5 12h-138q-23 0 -35 -14.5t-12 -32.5q0 -10 6 -25l285 -626l-348 -682q-8 -14 -6 -25z" />
<glyph unicode="Y" horiz-adv-x="1042" d="M27 1409q-1 -2 -1 -4q0 -7 5 -16l362 -717v-615q0 -25 17.5 -41t42.5 -16h135q25 0 42 16.5t17 40.5v615l363 717q4 9 4 16v4q-2 41 -45 43h-131q-25 0 -40.5 -12.5t-33.5 -50.5l-244 -471l-244 471q-20 39 -34.5 51t-38.5 12h-131q-43 -2 -45 -43z" />
<glyph unicode="Z" horiz-adv-x="1052" d="M84 59q0 -25 16.5 -42t40.5 -17h789q23 0 40 17.5t17 41.5v109q0 25 -17.5 42t-39.5 17h-559l598 965q17 32 17 76q0 9 -1 18v107q0 25 -17.5 42t-39.5 17h-742q-25 0 -41 -17.5t-16 -41.5v-109q0 -25 16.5 -42t40.5 -17h504l-575 -926q-16 -25 -23.5 -48.5t-7.5 -84.5 v-107z" />
<glyph unicode="[" horiz-adv-x="614" d="M139 -205q0 -109 62.5 -173t191.5 -64h78q23 0 40 17t17 42v66q0 25 -17 42t-40 17h-49q-53 0 -71.5 19.5t-18.5 70.5v1391q0 51 18.5 70.5t71.5 19.5h49q23 0 40 17.5t17 41.5v66q0 25 -17 42t-40 17h-78q-129 0 -191.5 -64.5t-62.5 -172.5v-1465z" />
<glyph unicode="\" horiz-adv-x="837" d="M41 1417q0 -8 4 -22l567 -1483q14 -39 28.5 -47t39.5 -8h78q37 4 37 37q0 8 -7 22l-567 1483q-14 37 -29.5 45t-37.5 8h-78q-35 -2 -35 -35z" />
<glyph unicode="]" horiz-adv-x="614" d="M84 -317v-66q0 -25 16.5 -42t40.5 -17h78q127 0 190.5 64.5t63.5 172.5v1465q0 109 -63.5 173t-190.5 64h-78q-25 0 -41 -17.5t-16 -41.5v-66q0 -25 16.5 -42t40.5 -17h49q51 0 71 -19.5t20 -70.5v-1391q0 -51 -19.5 -70.5t-71.5 -19.5h-49q-25 0 -41 -17.5t-16 -41.5z " />
<glyph unicode="^" horiz-adv-x="1107" d="M135 895q0 -31 29 -49l80 -43q12 -8 24 -8q31 0 49 28l236 420l235 -420q18 -29 50 -28q12 0 24 8l80 43q29 18 29 49q0 14 -8 27l-306 542q-18 29 -47 29h-114q-29 0 -47 -29l-306 -542q-8 -12 -8 -27z" />
<glyph unicode="_" horiz-adv-x="1097" d="M78 -211v-74q4 -35 37 -37h866q35 2 37 37v74q-2 35 -37 37h-866q-33 -2 -37 -37z" />
<glyph unicode="`" horiz-adv-x="589" d="M31 1497q0 -8 6 -18l131 -187q18 -25 30.5 -34t43.5 -9h73q47 4 50 43q0 14 -9 31l-71 156q-12 23 -32 40t-42 17h-135q-18 0 -31.5 -12.5t-13.5 -26.5z" />
<glyph unicode="a" horiz-adv-x="933" d="M53 270q0 -84 28 -140t71 -90t95 -48.5t101 -14.5q80 0 148.5 32t111.5 93v-45q0 -25 17.5 -41t42.5 -16h110q25 0 42.5 16.5t17.5 40.5v717q0 147 -89.5 251.5t-271.5 104.5q-168 0 -272.5 -97t-104.5 -240v-19q0 -25 16.5 -41t41.5 -16h108q23 0 40.5 16.5t17.5 40.5 v19q0 59 38.5 96t102.5 37q68 0 105.5 -35t37.5 -90q0 -45 -23.5 -67.5t-80.5 -47.5l-250 -102q-92 -39 -146.5 -113t-54.5 -201zM297 301q0 29 14.5 63.5t63.5 59.5l233 111v-213q0 -63 -46 -111.5t-113 -48.5q-98 0 -125 43t-27 96z" />
<glyph unicode="b" horiz-adv-x="944" d="M102 57q0 -25 17.5 -41t42.5 -16h112q25 0 42.5 16.5t17.5 40.5v66q31 -72 97.5 -115t156.5 -43q113 0 191.5 87t78.5 216v580q0 117 -81 199.5t-189 82.5q-90 0 -156.5 -44t-97.5 -113v422q0 23 -17.5 40t-42.5 17h-112q-25 0 -42.5 -17.5t-17.5 -39.5v-1338zM334 334 v407q0 61 40 112.5t107 51.5q68 0 107 -46t39 -118v-407q0 -74 -39 -119t-107 -45t-107.5 50t-39.5 114z" />
<glyph unicode="c" horiz-adv-x="897" d="M74 326q0 -152 105.5 -256.5t273.5 -104.5t273 104.5t105 256.5v16q0 23 -17 40t-42 17h-113q-25 0 -42 -17t-17 -40v-16q0 -63 -39 -109.5t-108 -46.5q-68 0 -108 45t-40 111v444q0 63 40 109.5t108 46.5q70 0 108.5 -43t38.5 -105q0 -25 17.5 -41t41.5 -16h113 q25 0 42 16t17 41q0 147 -105 249.5t-273 102.5t-273.5 -105t-105.5 -255v-444z" />
<glyph unicode="d" horiz-adv-x="946" d="M84 268q0 -129 84 -216t199 -87q88 0 149.5 43t91.5 115v-66q0 -25 17.5 -41t42.5 -16h112q25 0 42.5 16.5t17.5 40.5v1338q0 23 -17.5 40t-42.5 17h-112q-25 0 -42.5 -17.5t-17.5 -39.5v-422q-31 70 -92 113.5t-149 43.5q-111 0 -197 -82.5t-86 -199.5v-580zM315 334 v407q0 72 38 118t108 46q68 0 107.5 -51t39.5 -113v-407q0 -63 -40 -113.5t-107 -50.5q-70 0 -108 45t-38 119z" />
<glyph unicode="e" d="M74 326q0 -152 107.5 -256.5t275.5 -104.5t276.5 104.5t108.5 256.5v6q0 23 -17.5 40t-42.5 17h-112q-25 0 -42.5 -17.5t-17.5 -39.5v-6q0 -66 -43 -111t-110 -45q-68 0 -110 45t-42 111v168h477q25 0 42.5 16t17.5 41v219q0 150 -108.5 255t-276.5 105t-275.5 -105 t-107.5 -255v-444zM305 676v94q0 63 42 109.5t110 46.5t110.5 -46t42.5 -110v-94h-305z" />
<glyph unicode="f" horiz-adv-x="638" d="M102 57q0 -25 17.5 -41t42.5 -16h112q25 0 42.5 16.5t17.5 40.5v779h209q23 0 40 17t17 42v90q0 25 -17.5 42t-39.5 17h-209v80q0 49 17.5 85t97.5 36h94q23 0 40 17.5t17 42.5v90q0 25 -17.5 42t-39.5 17h-162q-117 0 -198 -77t-81 -187v-1133z" />
<glyph unicode="g" horiz-adv-x="946" d="M94 303q0 -129 84 -216t199 -87q88 0 149.5 43t91.5 115v-281q0 -61 -35.5 -112.5t-109.5 -51.5q-68 0 -105.5 46t-37.5 118q0 25 -18.5 41t-43.5 16h-108q-25 0 -42.5 -16t-17.5 -41q2 -154 112 -261.5t263 -107.5q158 0 266.5 114t108.5 272v1144q0 23 -17.5 40.5 t-41.5 17.5h-113q-25 0 -42.5 -17.5t-17.5 -40.5v-65q-31 70 -92 113.5t-149 43.5q-111 0 -197 -82.5t-86 -199.5v-545zM326 369v372q0 72 37.5 118t107.5 46q68 0 107.5 -51t39.5 -113v-372q0 -63 -39.5 -113.5t-107.5 -50.5q-70 0 -107.5 45t-37.5 119z" />
<glyph unicode="h" horiz-adv-x="952" d="M102 57q0 -25 17.5 -41t42.5 -16h112q25 0 42.5 16.5t17.5 40.5v705q0 61 40 112.5t107 51.5q68 0 107 -45t39 -119v-705q0 -25 17.5 -41t41.5 -16h113q25 0 42 16.5t17 40.5v770q0 117 -76.5 210t-193.5 93q-90 0 -156.5 -44t-97.5 -113v422q0 23 -17.5 40t-42.5 17 h-112q-25 0 -42.5 -17.5t-17.5 -39.5v-1338z" />
<glyph unicode="i" horiz-adv-x="438" d="M102 57q0 -25 17.5 -41t42.5 -16h112q25 0 42.5 16.5t17.5 40.5v981q0 23 -17.5 40.5t-42.5 17.5h-112q-25 0 -42.5 -17.5t-17.5 -40.5v-981zM102 1309q0 -25 17.5 -41.5t42.5 -16.5h112q25 0 42.5 16.5t17.5 41.5v86q0 23 -17.5 40t-42.5 17h-112q-25 0 -42.5 -17.5 t-17.5 -39.5v-86z" />
<glyph unicode="j" horiz-adv-x="466" d="M-70 -227v-90q0 -25 17.5 -42.5t40.5 -17.5h96q115 0 196.5 77t81.5 187v1151q0 23 -17 40.5t-42 17.5h-113q-25 0 -42 -17.5t-17 -40.5v-1085q0 -49 -18.5 -85t-96.5 -36h-28q-23 0 -40.5 -17.5t-17.5 -41.5zM131 1309q0 -25 17.5 -41.5t41.5 -16.5h113q25 0 42 16.5 t17 41.5v86q0 23 -17 40t-42 17h-113q-25 0 -42 -17.5t-17 -39.5v-86z" />
<glyph unicode="k" horiz-adv-x="937" d="M102 57q0 -25 17.5 -41t42.5 -16h112q25 0 42.5 16.5t17.5 40.5v488l307 -488q12 -23 29.5 -40t42.5 -17h127q61 4 61 56q0 12 -8 28l-332 516l297 389q12 20 12 39q0 18 -16 28.5t-39 10.5h-137q-25 0 -38 -12.5t-30 -32.5l-276 -363v736q0 23 -17.5 40t-42.5 17h-112 q-25 0 -42.5 -17.5t-17.5 -39.5v-1338z" />
<glyph unicode="l" horiz-adv-x="438" d="M102 57q0 -25 17.5 -41t42.5 -16h112q25 0 42.5 16.5t17.5 40.5v1338q0 23 -17.5 40t-42.5 17h-112q-25 0 -42.5 -17.5t-17.5 -39.5v-1338z" />
<glyph unicode="m" horiz-adv-x="1466" d="M102 57q0 -25 17.5 -41t42.5 -16h112q25 0 42.5 16.5t17.5 40.5v705q0 61 40 112.5t107 51.5q68 0 107 -45t39 -119v-705q0 -25 17.5 -41t41.5 -16h113q25 0 42 16.5t17 40.5v705q0 61 36 112.5t103 51.5q68 0 107 -45t39 -119v-705q0 -25 17.5 -41t41.5 -16h113 q25 0 42 16.5t17 40.5v770q0 117 -76.5 210t-193.5 93q-90 0 -163 -45t-103 -112q-31 59 -97.5 108t-152.5 49q-90 0 -156.5 -44t-97.5 -113v65q0 23 -17.5 40.5t-42.5 17.5h-112q-25 0 -42.5 -17.5t-17.5 -40.5v-981z" />
<glyph unicode="n" horiz-adv-x="950" d="M102 57q0 -25 17.5 -41t42.5 -16h112q25 0 42.5 16.5t17.5 40.5v705q0 61 40 112.5t107 51.5q68 0 107 -45t39 -119v-705q0 -25 17.5 -41t41.5 -16h113q25 0 42 16.5t17 40.5v770q0 117 -76.5 210t-193.5 93q-90 0 -156.5 -44t-97.5 -113v65q0 23 -17.5 40.5t-42.5 17.5 h-112q-25 0 -42.5 -17.5t-17.5 -40.5v-981z" />
<glyph unicode="o" d="M74 326q0 -152 107.5 -256.5t275.5 -104.5t276.5 104.5t108.5 256.5v444q0 150 -108.5 255t-276.5 105t-275.5 -105t-107.5 -255v-444zM305 326v444q0 63 42 109.5t110 46.5t110.5 -46t42.5 -110v-444q0 -66 -43 -111t-110 -45q-68 0 -110 45t-42 111z" />
<glyph unicode="p" horiz-adv-x="937" d="M94 -319q0 -23 17.5 -40.5t42.5 -17.5h112q25 0 42.5 17.5t17.5 40.5v442q31 -72 97 -115t157 -43q109 0 189.5 83t80.5 200v579q0 129 -79 216t-191 87q-90 0 -157 -44t-97 -113v65q0 23 -17.5 40.5t-42.5 17.5h-112q-25 0 -42.5 -17.5t-17.5 -40.5v-1357zM326 354v408 q0 61 40 112.5t107 51.5q68 0 106.5 -45t38.5 -119v-408q0 -74 -38.5 -119t-106.5 -45t-107.5 50.5t-39.5 113.5z" />
<glyph unicode="q" horiz-adv-x="937" d="M86 248q0 -117 80 -200t190 -83q88 0 156 43t98 115v-442q0 -23 17.5 -40.5t42.5 -17.5h112q25 0 42.5 17.5t17.5 40.5v1357q0 23 -17.5 40.5t-42.5 17.5h-112q-25 0 -42.5 -17.5t-17.5 -40.5v-65q-31 70 -98.5 113.5t-155.5 43.5q-115 0 -192.5 -87t-77.5 -216v-579z M317 354v408q0 74 38 119t108 45q68 0 107.5 -51.5t39.5 -112.5v-408q0 -63 -40 -113.5t-107 -50.5q-70 0 -108 45.5t-38 118.5z" />
<glyph unicode="r" horiz-adv-x="847" d="M102 57q0 -25 17.5 -41t42.5 -16h112q25 0 42.5 16.5t17.5 40.5v729q0 59 37 99.5t90 40.5q72 0 95.5 -40t23.5 -100v-28q0 -25 17 -41.5t42 -16.5h113q25 0 42 16.5t17 41.5v129q0 106 -68.5 174.5t-158.5 68.5q-86 0 -151.5 -45t-98.5 -96v49q0 23 -17.5 40.5 t-42.5 17.5h-112q-25 0 -42.5 -17.5t-17.5 -40.5v-981z" />
<glyph unicode="s" horiz-adv-x="903" d="M66 319q0 -141 111.5 -247.5t277.5 -106.5q164 0 273.5 97.5t109.5 240.5q0 113 -43 178.5t-129 106.5l-301 137q-41 16 -52.5 38.5t-11.5 53.5q0 57 45 83t96 26q53 0 100.5 -27t47.5 -108q0 -25 17.5 -41.5t41.5 -16.5h107q25 0 42 16.5t17 41.5v18q0 143 -108.5 232 t-266.5 89q-160 0 -261 -89t-101 -240q0 -82 37 -148.5t110 -101.5l312 -148q43 -23 58 -50t15 -52q0 -47 -36.5 -89t-118.5 -42q-74 0 -119 41t-45 108q0 23 -17.5 40.5t-42.5 17.5h-106q-25 0 -42 -17.5t-17 -40.5z" />
<glyph unicode="t" horiz-adv-x="679" d="M102 264q0 -111 81 -187.5t198 -76.5h160q23 0 40 17.5t17 41.5v91q0 25 -17.5 42t-39.5 17h-92q-80 0 -97.5 35t-17.5 86v557h209q23 0 40 17.5t17 41.5v90q0 25 -17.5 42.5t-39.5 17.5h-209v299q0 23 -17.5 40t-42.5 17h-112q-25 0 -42.5 -17.5t-17.5 -39.5v-1131z" />
<glyph unicode="u" horiz-adv-x="950" d="M90 268q0 -119 76 -211t194 -92q88 0 156 43t98 115v-66q0 -25 17.5 -41t42.5 -16h112q25 0 42.5 16.5t17.5 40.5v981q0 23 -17.5 40.5t-42.5 17.5h-112q-25 0 -42.5 -17.5t-17.5 -40.5v-704q0 -63 -39.5 -113.5t-107.5 -50.5q-70 0 -107.5 45t-37.5 119v704 q0 23 -17.5 40.5t-42.5 17.5h-112q-25 0 -42.5 -17.5t-17.5 -40.5v-770z" />
<glyph unicode="v" horiz-adv-x="894" d="M12 1057q0 -8 2 -19l283 -981q6 -25 25.5 -41t44.5 -16h159q23 0 42.5 16.5t27.5 40.5l283 981q2 10 2 19q0 16 -13.5 27.5t-31.5 11.5h-129h-4q-40 0 -52 -43l-205 -777l-204 777q-11 43 -52 43h-4h-129q-18 0 -31.5 -11.5t-13.5 -27.5z" />
<glyph unicode="w" horiz-adv-x="1480" d="M27 1051q-1 -2 -1 -4q0 -4 3 -9l221 -981q10 -53 57 -57h211q49 4 57 57l164 779l164 -779q8 -53 58 -57h210q47 4 58 57l221 981q3 4 3 8q0 2 -1 5q0 18 -17.5 31.5t-35.5 13.5h-123q-43 -4 -53 -58l-166 -751l-152 751q-8 54 -57 58h-217q-49 -4 -58 -58l-151 -751 l-166 751q-10 53 -53 58h-123q-20 0 -36.5 -13.5t-16.5 -31.5z" />
<glyph unicode="x" horiz-adv-x="888" d="M27 47q0 -18 14 -32.5t33 -14.5h141q23 0 33 9t22 34l174 360l174 -360q10 -25 20.5 -34t35.5 -9h141q18 0 32.5 14.5t14.5 32.5q0 10 -4 16l-250 519l219 450q4 8 4 17q0 18 -13 32.5t-32 14.5h-135q-41 0 -55 -41l-152 -312l-151 312q-14 41 -55 41h-136 q-18 0 -31.5 -14.5t-13.5 -32.5q0 -8 4 -17l220 -450l-250 -519q-4 -6 -4 -16z" />
<glyph unicode="y" horiz-adv-x="925" d="M23 1055q0 -6 4 -19l323 -1089q10 -33 12 -60q0 -25 -18 -40t-65 -15h-95q-25 0 -41 -17.5t-16 -41.5v-90q0 -25 16.5 -42.5t40.5 -17.5h111q104 0 177 47t116 197l325 1169q4 12 5 19q-2 37 -41 41h-148h-3q-39 0 -50 -43l-199 -801l-213 801q-10 43 -49 43h-4h-148 q-39 -4 -40 -41z" />
<glyph unicode="z" horiz-adv-x="884" d="M66 59q0 -25 20 -42t45 -17h639q23 0 40 17.5t17 41.5v97q0 25 -18 42t-41 17h-440l460 610q16 20 19.5 39t3.5 68v104q0 25 -17.5 42.5t-39.5 17.5h-596q-25 0 -39.5 -16.5t-14.5 -41.5v-98q0 -25 16.5 -42t41.5 -17h397l-473 -617q-16 -20 -18 -39.5t-2 -66.5v-99z" />
<glyph unicode="{" horiz-adv-x="804" d="M119 459q0 -25 16.5 -42.5t40.5 -17.5h43q47 0 81 -15t34 -101v-449q0 -111 81 -190.5t201 -79.5h43q25 0 42.5 17.5t17.5 41.5v66q0 25 -17.5 42t-42.5 17h-16q-61 0 -87 38t-26 87v373q0 111 -33.5 188.5t-138.5 91.5q104 12 138 90t34 191v375q0 49 26 87t87 38h16 q25 0 42.5 17t17.5 42v66q0 25 -17.5 42t-42.5 17h-43q-121 0 -201.5 -80t-80.5 -190v-451q0 -86 -34 -101.5t-81 -15.5h-43q-25 0 -41 -17.5t-16 -41.5v-135z" />
<glyph unicode="|" horiz-adv-x="387" d="M102 -86q0 -25 15.5 -41t40.5 -16h69q23 0 39.5 16t16.5 41v1481q0 25 -16.5 41t-39.5 16h-69q-25 0 -40.5 -16.5t-15.5 -40.5v-1481z" />
<glyph unicode="}" horiz-adv-x="804" d="M84 -311v-66q0 -25 17.5 -42t41.5 -17h43q119 0 201 80t82 190v449q0 86 33 101t82 15h43q23 0 40 17.5t17 42.5v135q0 25 -17.5 42t-39.5 17h-43q-49 0 -82 15.5t-33 101.5v451q0 111 -82 190.5t-201 79.5h-43q-25 0 -42 -17.5t-17 -41.5v-66q0 -25 17.5 -42t41.5 -17 h17q59 0 85.5 -38t26.5 -87v-375q0 -113 34 -190.5t138 -90.5q-104 -14 -138 -92t-34 -188v-373q0 -49 -26.5 -87t-85.5 -38h-17q-25 0 -42 -17.5t-17 -41.5z" />
<glyph unicode="~" horiz-adv-x="1107" d="M199 555q0 -8 8 -25q41 -70 53 -84t25 -14q10 2 20 8q14 8 50 34t77 26q37 0 65.5 -12.5t53.5 -24.5t53.5 -25.5t69.5 -13.5q68 0 128 34t81 50q25 16 24 31q0 8 -8 24q-43 68 -55.5 83.5t-22.5 15.5q-10 -2 -20 -9q-16 -10 -52 -34.5t-75 -24.5t-66.5 11t-52.5 26 q-25 12 -54.5 25.5t-68.5 13.5q-70 0 -130 -35t-79 -49q-25 -16 -24 -31z" />
<glyph unicode="&#xa1;" horiz-adv-x="571" d="M150 57q0 -25 17 -41t42 -16h151q25 0 42.5 16.5t17.5 40.5v281q0 74 -12.5 185.5t-24.5 216t-33 253.5q-2 20 -17.5 38t-37.5 18h-21q-25 0 -40 -17.5t-15 -38.5q-25 -150 -37 -254t-22 -215.5t-10 -185.5v-281zM150 1282q0 -25 17 -41t42 -16h151q25 0 42.5 16t17.5 41 v113q0 23 -17.5 40t-42.5 17h-151q-25 0 -42 -17.5t-17 -39.5v-113z" />
<glyph unicode="&#xa2;" horiz-adv-x="1222" d="M231 326q0 -86 35 -158t96 -121l-40 -156q-2 -10 -3 -18q2 -41 41 -51l99 -27q2 0 13 -3t15 -3q18 0 33 12.5t21 30.5l34 135q18 -4 35 -2q168 0 273.5 104.5t105.5 256.5v16q0 23 -17.5 40t-41.5 17h-113q-25 0 -42 -17t-17 -40v-16q0 -63 -39 -109.5t-109 -46.5 q-68 0 -107.5 45t-39.5 111v444q0 63 40 109.5t107 46.5q70 0 109 -43t39 -105q0 -25 17.5 -41t41.5 -16h113q25 0 42 16t17 41q0 80 -33.5 149.5t-93.5 119.5l35 135q4 12 4 24q-2 41 -41 54l-112 28q-6 2 -15 2q-41 0 -53 -43l-31 -119q-23 2 -39 2q-168 0 -273.5 -105 t-105.5 -255v-444z" />
<glyph unicode="&#xa3;" horiz-adv-x="1222" d="M111 59q0 -25 16 -42t41 -17h885q23 0 40 17.5t17 41.5v84q0 25 -17.5 42.5t-39.5 17.5h-539v432h299q23 0 40 17.5t17 41.5v74q0 25 -17 42t-40 17h-299v271q0 80 41 131t131 51q88 0 126 -48t38 -128q0 -25 15.5 -41t39.5 -16h113q25 0 41 16t16 41q0 178 -111.5 285.5 t-277.5 107.5q-178 0 -300 -104.5t-122 -294.5v-271h-92q-25 0 -41 -17t-16 -42v-74q0 -25 16 -42t41 -17h92v-316q0 -61 -18.5 -88.5t-73.5 -27.5q-25 0 -43 -17.5t-18 -42.5v-84z" />
<glyph unicode="&#xa4;" horiz-adv-x="1378" d="M80 1184q-2 -18 16 -35l117 -121q-86 -143 -90 -305q4 -166 94 -315l-115 -117q-16 -16 -16 -37q0 -18 16 -37l86 -86q16 -16 41 -14q16 -2 33 14l119 119q143 -90 309 -92q80 0 159 25.5t150 70.5l119 -117q18 -14 41 -14q16 0 33 14l88 86q16 18 16 39q-2 16 -16 37 q-29 25 -62.5 58.5l-58.5 58.5q88 145 90 307q-2 166 -94 313l119 119q16 16 14 35q2 20 -14 39l-88 86q-14 16 -33 14q-23 2 -41 -14l-121 -121q-70 43 -147.5 67.5t-153.5 24.5q-170 -2 -317 -96l-117 119q-16 16 -35 16q-20 0 -39 -16l-86 -86q-18 -18 -16 -39zM342 723 q0 141 101.5 242.5t246.5 101.5q139 0 240.5 -101.5t101.5 -242.5q0 -145 -101.5 -245.5t-240.5 -100.5q-145 0 -246.5 100.5t-101.5 245.5z" />
<glyph unicode="&#xa5;" horiz-adv-x="1222" d="M117 1409q-2 -8 4 -20l211 -418h-90q-25 0 -41.5 -17.5t-16.5 -42.5v-84q0 -25 16.5 -42t41.5 -17h192l49 -96h-241q-25 0 -41.5 -17.5t-16.5 -42.5v-82q0 -25 16.5 -42t41.5 -17h241v-414q0 -25 17.5 -41t42.5 -16h135q25 0 42 16.5t17 40.5v414h242q23 0 40 17.5 t17 41.5v82q0 25 -17.5 42.5t-39.5 17.5h-242l49 96h193q23 0 40 17.5t17 41.5v84q0 25 -17.5 42.5t-39.5 17.5h-90l211 418q6 12 4 20q-2 41 -45 43h-131q-25 0 -40.5 -12.5t-33.5 -50.5l-244 -471l-243 471q-20 39 -35 51t-39 12h-131q-43 -2 -45 -43z" />
<glyph unicode="&#xa6;" horiz-adv-x="450" d="M98 53q0 -23 15.5 -38t40.5 -15h141q23 0 39 15t16 38v467q0 23 -16.5 39t-38.5 16h-141q-25 0 -40.5 -16t-15.5 -39v-467zM98 930q0 -23 15.5 -38t40.5 -15h141q23 0 39 15t16 38v467q0 23 -16.5 39t-38.5 16h-141q-25 0 -40.5 -16.5t-15.5 -38.5v-467z" />
<glyph unicode="&#xa7;" horiz-adv-x="978" d="M84 662q0 -96 41 -176t141 -148q55 -39 115.5 -79t112 -78t86 -74.5t34.5 -71.5q0 -76 -43 -101.5t-104 -25.5q-119 -2 -145 104q-2 23 -17.5 39.5t-38.5 16.5h-121q-25 0 -40 -16.5t-15 -39.5q0 -137 108.5 -228t268.5 -91t266.5 95t106.5 235q0 74 -23.5 124t-71.5 97 q61 49 104.5 121.5t43.5 164.5q0 94 -42 174t-140 150q-55 37 -118 75t-114 76.5t-84 76.5t-33 75q0 76 43.5 101.5t104.5 25.5q117 2 145 -104q0 -25 15.5 -42.5t40.5 -17.5h120q23 0 39.5 15.5t16.5 40.5q0 137 -108.5 228t-268.5 91t-266.5 -95t-106.5 -235 q0 -74 22.5 -123t71.5 -94q-61 -51 -104 -123.5t-43 -162.5zM305 653q0 41 27.5 91.5t66.5 74.5l183 -133q61 -43 75.5 -77t14.5 -70q0 -43 -29 -92.5t-65 -73.5l-183 133q-61 43 -75.5 76.5t-14.5 70.5z" />
<glyph unicode="&#xa8;" horiz-adv-x="1011" d="M174 1264q0 -25 15.5 -41.5t39.5 -16.5h144q23 0 39 16.5t16 41.5v112q0 23 -16.5 40.5t-38.5 17.5h-144q-25 0 -40 -17.5t-15 -40.5v-112zM582 1264q0 -25 15 -41.5t40 -16.5h143q23 0 39.5 16.5t16.5 41.5v112q0 23 -16.5 40.5t-39.5 17.5h-143q-25 0 -40 -17.5 t-15 -40.5v-112z" />
<glyph unicode="&#xa9;" horiz-adv-x="1691" d="M88 723q0 -158 58.5 -296t162 -241.5t241.5 -162t298 -58.5q154 0 291 58.5t239.5 162t163 241.5t60.5 296q0 154 -60.5 291t-163 240.5t-240 164t-290.5 60.5q-160 0 -298 -60.5t-241.5 -164t-162 -240.5t-58.5 -291zM170 723q0 139 52 261t144.5 214t216.5 145.5 t265 53.5q139 0 261 -53.5t214 -145.5t145.5 -214t53.5 -261q0 -141 -53.5 -265t-145.5 -216t-214 -143.5t-261 -51.5q-141 0 -265 51.5t-216.5 143.5t-144.5 216t-52 265zM543 492q0 -115 87 -200t222 -85q131 0 221 80t90 194v21q-4 39 -45 41h-84q-41 -2 -45 -41 q0 -66 -40 -101.5t-97 -35.5q-66 0 -100.5 35.5t-34.5 101.5v452q4 131 135 136q57 0 97 -37t40 -101q4 -39 45 -41h84q41 2 45 41v21q0 113 -90 193.5t-221 80.5q-135 0 -222 -85t-87 -191v-479z" />
<glyph unicode="&#xaa;" horiz-adv-x="681" d="M53 909q0 -113 68.5 -156.5t134.5 -43.5t114 33.5t68 70.5v-39q0 -20 14.5 -34.5t32.5 -14.5h60q27 0 38 20.5t11 28.5v483q0 109 -71.5 173.5t-190.5 64.5q-121 0 -186.5 -72.5t-65.5 -165.5q0 -23 14.5 -37t34.5 -14h57q29 0 40.5 20.5t11.5 30.5q0 12 13 56.5t81 44.5 q106 -2 106 -101q0 -23 -10 -28.5t-29 -14.5q-49 -23 -104 -47t-105 -45q-63 -27 -100 -77t-37 -136zM217 924q0 25 9.5 46t58.5 46q68 33 153 76v-103q0 -66 -36.5 -103.5t-98.5 -37.5q-82 0 -86 76z" />
<glyph unicode="&#xab;" horiz-adv-x="1144" d="M129 489q2 -27 29 -47l327 -321q8 -10 24.5 -11t25.5 -1q18 0 28 14t10 33v96q0 20 -8 32.5t-24 30.5l-224 220l224 219q16 16 24 28.5t8 34.5v96q0 16 -10 32t-28 16q-8 0 -24.5 -2.5t-25.5 -10.5l-327 -321q-27 -20 -29 -47v-91zM590 489q2 -27 28 -47l328 -321 q8 -10 24.5 -11t24.5 -1q18 0 28.5 14t10.5 33v96q0 20 -8 32.5t-25 30.5l-223 220l223 219q16 16 24.5 28.5t8.5 34.5v96q0 16 -10 32t-29 16q-8 0 -24.5 -2.5t-24.5 -10.5l-328 -321q-27 -20 -28 -47v-91z" />
<glyph unicode="&#xac;" horiz-adv-x="1107" d="M117 627q0 -25 16.5 -42.5t40.5 -17.5h614v-188q0 -25 17.5 -41t42.5 -16h82q25 0 42 16t17 41v332q0 23 -17.5 40t-41.5 17h-756q-25 0 -41 -17.5t-16 -41.5v-82z" />
<glyph unicode="&#xad;" horiz-adv-x="827" d="M57 508q0 -25 16.5 -42t41.5 -17h596q23 0 40 17t17 42v82q0 25 -17.5 42t-39.5 17h-596q-25 0 -41.5 -17.5t-16.5 -41.5v-82z" />
<glyph unicode="&#xae;" horiz-adv-x="1691" d="M88 723q0 -158 58.5 -296t162 -241.5t241.5 -162t298 -58.5q154 0 291 58.5t239.5 162t163 241.5t60.5 296q0 154 -60.5 291t-163 240.5t-240 164t-290.5 60.5q-160 0 -298 -60.5t-241.5 -164t-162 -240.5t-58.5 -291zM170 723q0 139 52 261t144.5 214t216.5 145.5 t265 53.5q139 0 261 -53.5t214 -145.5t145.5 -214t53.5 -261q0 -141 -53.5 -265t-145.5 -216t-214 -143.5t-261 -51.5q-141 0 -265 51.5t-216.5 143.5t-144.5 216t-52 265zM557 258q0 -20 14.5 -33.5t32.5 -13.5h94q43 2 47 47v406h129q55 0 78 -34t23 -83v-289 q0 -20 14.5 -33.5t32.5 -13.5h94q43 2 47 47v287q0 80 -42 129t-103 61q53 6 93 57.5t40 131.5v96q0 100 -71.5 161.5t-149.5 61.5h-326q-18 0 -32.5 -14.5t-14.5 -32.5v-938zM735 805v293h125q45 0 80 -30t35 -79v-78q0 -49 -35 -77.5t-80 -28.5h-125z" />
<glyph unicode="&#xaf;" horiz-adv-x="911" d="M104 1309q0 -25 15.5 -40.5t40.5 -15.5h590q23 0 39 15.5t16 40.5v59q0 23 -16.5 39t-38.5 16h-590q-25 0 -40.5 -16t-15.5 -39v-59z" />
<glyph unicode="&#xb0;" horiz-adv-x="778" d="M102 1206q0 -119 84 -199.5t201 -80.5t201 80.5t84 199.5q0 117 -84 201t-201 84t-201 -83t-84 -202zM213 1206q0 74 50 126t124 52t127 -52t53 -126t-53 -125t-127 -51t-124 51.5t-50 124.5z" />
<glyph unicode="&#xb1;" horiz-adv-x="1107" d="M80 59q0 -25 16.5 -42t40.5 -17h830q23 0 40 17.5t17 41.5v82q0 25 -17.5 42.5t-39.5 17.5h-318v344h318q23 0 40 17.5t17 41.5v84q0 25 -17.5 42.5t-39.5 17.5h-318v374q0 23 -17.5 40.5t-41.5 17.5h-70q-25 0 -42 -17.5t-17 -40.5v-374h-324q-25 0 -41 -17.5t-16 -42.5 v-84q0 -25 16.5 -42t40.5 -17h324v-344h-324q-25 0 -41 -17.5t-16 -42.5v-82z" />
<glyph unicode="&#xb2;" horiz-adv-x="677" d="M98 1219q2 -31 35 -33h66q31 -2 34 24v9q-2 109 99 112q43 0 71.5 -25.5t28.5 -74.5q0 -20 -9 -37.5t-36 -50.5l-260 -330q-12 -12 -16.5 -29.5t-4.5 -48.5v-84q2 -33 33 -35h404q12 0 22 10.5t10 24.5v74q0 12 -10 23.5t-22 11.5h-273l256 327q35 43 43.5 81t8.5 81 q0 109 -78 165t-168 56q-94 0 -164 -58t-70 -163v-30z" />
<glyph unicode="&#xb3;" horiz-adv-x="681" d="M98 823q0 -109 70 -163t170 -54q98 0 171 55.5t73 161.5v60q0 57 -12.5 104t-82.5 72q57 31 69.5 67.5t12.5 92.5v63q0 86 -67.5 144.5t-163.5 58.5q-98 0 -162.5 -58.5t-64.5 -144.5v-45q4 -31 34 -33h72q12 0 23.5 13.5t11.5 27.5v10q0 39 19.5 67t66.5 28 q86 -2 90 -95v-45q0 -35 -22.5 -56t-55.5 -21h-26q-33 -2 -35 -35v-72q2 -31 35 -35h38q31 0 53.5 -22.5t22.5 -55.5v-65q0 -102 -100 -107q-49 0 -72.5 32t-23.5 75v12q-2 31 -35 33h-74q-33 -2 -35 -33v-37z" />
<glyph unicode="&#xb4;" horiz-adv-x="587" d="M225 1292q2 -39 49 -43h74q29 0 42 9.5t32 33.5l131 187q6 10 6 18q0 14 -14.5 26.5t-30.5 12.5h-135q-25 0 -44.5 -17.5t-29.5 -39.5l-72 -156q-8 -16 -8 -31z" />
<glyph unicode="&#xb6;" horiz-adv-x="1073" d="M84 977q0 -100 69.5 -170t170.5 -70h110v-823q0 -23 17.5 -40t42.5 -17h71q25 0 42.5 17t17.5 40v1305h143v-1305q0 -23 17.5 -40t41.5 -17h72q25 0 42 17t17 40v1481q0 23 -17 40t-42 17h-555q-100 0 -180 -71.5t-80 -170.5v-233z" />
<glyph unicode="&#xb7;" horiz-adv-x="387" d="M57 494q0 -25 17.5 -41.5t42.5 -16.5h151q25 0 42.5 16.5t17.5 41.5v112q0 23 -17.5 40.5t-42.5 17.5h-151q-25 0 -42.5 -17.5t-17.5 -40.5v-112z" />
<glyph unicode="&#xb8;" horiz-adv-x="675" d="M162 -362q-2 -18 16 -33q37 -29 81 -49.5t87 -20.5q121 0 176.5 61.5t55.5 139.5q0 82 -56.5 127t-103.5 45q-27 0 -39 -2t-37 -12l35 110q4 6 2 12q-2 29 -29 37l-37 13q-6 4 -12 2q-27 -2 -39 -27l-59 -207q-2 -6 -2 -12q0 -27 24 -35l45 -14q8 -2 15 -2q20 0 30.5 16 t36.5 16q25 0 48.5 -14t23.5 -59q0 -74 -80 -78q-35 0 -53.5 14.5t-46.5 32.5q-14 10 -25 10q-20 0 -31 -18l-20 -29q-8 -12 -6 -24z" />
<glyph unicode="&#xb9;" horiz-adv-x="491" d="M78 1272q4 -31 35 -33h98v-590q2 -31 35 -33h80q33 2 34 33v772q-2 33 -34 35h-80q-27 -2 -33 -24q-12 -25 -31.5 -46.5t-68.5 -25.5q-31 -2 -35 -33v-55z" />
<glyph unicode="&#xba;" horiz-adv-x="643" d="M66 926q0 -96 74.5 -163t181.5 -67q104 0 178.5 66.5t74.5 163.5v342q0 94 -74.5 161.5t-178.5 67.5q-106 0 -181 -67.5t-75 -161.5v-342zM215 946v301q0 43 32 75t75 32t74.5 -32t31.5 -75v-301q0 -43 -31.5 -74.5t-74.5 -31.5t-75 31.5t-32 74.5z" />
<glyph unicode="&#xbb;" horiz-adv-x="1144" d="M109 156q0 -18 9 -32.5t29 -14.5q6 0 22.5 1t27.5 11l327 321q27 20 29 47v91q-2 27 -29 47l-327 321q-10 8 -26.5 10.5t-23.5 2.5q-20 0 -29 -15.5t-9 -32.5v-96q0 -23 7 -35t25 -28l224 -219l-224 -220q-18 -18 -25 -30.5t-7 -32.5v-96zM569 156q0 -18 9.5 -32.5 t29.5 -14.5q6 0 22.5 1t26.5 11l328 321q27 20 29 47v91q-2 27 -29 47l-328 321q-10 8 -26.5 10.5t-22.5 2.5q-20 0 -29.5 -15.5t-9.5 -32.5v-96q0 -23 7.5 -35t25.5 -28l223 -219l-223 -220q-18 -18 -25.5 -30.5t-7.5 -32.5v-96z" />
<glyph unicode="&#xbc;" horiz-adv-x="1484" d="M98 1272q4 -31 35 -33h98v-590q2 -31 35 -33h80q33 2 35 33v772q-2 33 -35 35h-80q-27 -2 -33 -24q-12 -25 -31.5 -46.5t-68.5 -25.5q-31 -2 -35 -33v-55zM348 2q0 -35 37 -37h78q23 0 37 8.5t30 46.5l543 1420q4 14 4 22q0 33 -35 35h-77q-25 0 -40.5 -8t-27.5 -45 l-543 -1419q-6 -12 -6 -23zM838 233q2 -33 32 -34h283v-166q2 -31 37 -33h78q31 2 35 33v166h57q31 2 33 34v68q-2 31 -33 35h-57v469q-4 31 -35 35h-178q-29 -2 -46 -33l-192 -453q-10 -18 -12 -30.5t-2 -24.5v-66zM991 338l162 385v-385h-162z" />
<glyph unicode="&#xbd;" horiz-adv-x="1515" d="M98 1270q4 -31 35 -33h98v-588q2 -31 35 -33h80q33 2 35 33v770q-2 31 -35 35h-80q-27 -2 -33 -24q-12 -25 -31.5 -46.5t-68.5 -25.5q-31 -2 -35 -33v-55zM348 2q0 -35 37 -37h78q23 0 37 8.5t30 46.5l543 1420q4 14 4 22q0 33 -35 35h-77q-25 0 -40.5 -8t-27.5 -45 l-543 -1419q-6 -12 -6 -23zM936 604q2 -31 35 -33h65q33 -2 35 25v8q-2 109 98 113q43 0 72 -25.5t29 -75.5q0 -20 -9.5 -37.5t-35.5 -50.5l-260 -329q-12 -12 -16.5 -29.5t-4.5 -48.5v-84q2 -33 33 -35h403q12 0 22.5 10.5t10.5 24.5v74q0 12 -10 23t-23 11h-272l256 328 q35 43 43 81t8 81q0 109 -77.5 165t-168.5 56q-94 0 -163.5 -58.5t-69.5 -162.5v-31z" />
<glyph unicode="&#xbe;" horiz-adv-x="1593" d="M98 823q0 -109 70 -163t170 -54q98 0 171 55.5t73 161.5v60q0 57 -12.5 104t-82.5 72q57 31 69.5 67.5t12.5 92.5v63q0 86 -67.5 144.5t-163.5 58.5q-98 0 -162.5 -58.5t-64.5 -144.5v-45q4 -31 34 -33h72q12 0 23.5 13.5t11.5 27.5v10q0 39 19.5 67t66.5 28 q86 -2 90 -95v-45q0 -35 -22.5 -56t-55.5 -21h-26q-33 -2 -35 -35v-72q2 -31 35 -35h38q31 0 53.5 -22.5t22.5 -55.5v-65q0 -102 -100 -107q-49 0 -72.5 32t-23.5 75v12q-2 31 -35 33h-74q-33 -2 -35 -33v-37zM451 2q0 -35 36 -37h78q23 0 37 8.5t31 46.5l543 1420 q4 14 4 22q0 33 -35 35h-78q-25 0 -40 -8t-28 -45l-542 -1419q-6 -12 -6 -23zM946 233q2 -33 33 -34h283v-166q4 -31 36 -33h78q33 2 35 33v166h57q31 2 33 34v68q-2 31 -33 35h-57v469q-2 31 -35 35h-178q-29 -2 -45 -33l-192 -453q-10 -18 -12.5 -30.5t-2.5 -24.5v-66z M1100 338l162 385v-385h-162z" />
<glyph unicode="&#xbf;" horiz-adv-x="954" d="M68 391q0 -195 119.5 -293t291.5 -98q178 0 292 106.5t114 284.5v33q0 23 -18.5 40t-43.5 17h-125q-25 0 -42 -17.5t-17 -39.5v-25q0 -80 -35 -131t-127 -51q-94 0 -128 50t-34 136q0 51 13.5 77t27.5 44l228 256q35 39 44 88.5t9 100.5v78q0 23 -17.5 40t-41.5 17h-132 q-25 0 -40 -17.5t-15 -39.5v-50q0 -49 -13 -82.5t-42 -68.5l-209 -244q-33 -39 -46 -96t-13 -115zM387 1331q0 -25 15.5 -41t39.5 -16h140q25 0 42 16.5t17 40.5v113q0 23 -17.5 40t-41.5 17h-140q-25 0 -40 -17.5t-15 -39.5v-113z" />
<glyph unicode="&#xc0;" horiz-adv-x="1075" d="M37 43q0 -18 12 -30.5t33 -12.5h151q37 4 46 45l61 258h393l62 -258q8 -41 45 -45h151q18 0 31.5 12.5t13.5 30.5q0 6 -6 35l-309 1337q-8 35 -47 37h-275q-39 -2 -47 -37l-309 -1337q-6 -29 -6 -35zM309 1815q0 -8 6 -19l131 -186q18 -25 30.5 -34t43.5 -9h74 q47 2 49 43q0 16 -8 30l-72 156q-12 23 -31.5 40t-42.5 17h-135q-18 0 -31.5 -12t-13.5 -26zM387 516l150 680l149 -680h-299z" />
<glyph unicode="&#xc1;" horiz-adv-x="1075" d="M37 43q0 -18 12 -30.5t33 -12.5h151q37 4 46 45l61 258h393l62 -258q8 -41 45 -45h151q18 0 31.5 12.5t13.5 30.5q0 6 -6 35l-309 1337q-8 35 -47 37h-275q-39 -2 -47 -37l-309 -1337q-6 -29 -6 -35zM387 516l150 680l149 -680h-299zM442 1612q2 -39 50 -43h73 q29 0 42.5 9t31.5 34l131 186q6 10 6 19q0 14 -14 26t-31 12h-135q-25 0 -44.5 -17t-29.5 -40l-71 -156q-8 -16 -9 -30z" />
<glyph unicode="&#xc2;" horiz-adv-x="1075" d="M37 43q0 -18 12 -30.5t33 -12.5h151q37 4 46 45l61 258h393l62 -258q8 -41 45 -45h151q18 0 31.5 12.5t13.5 30.5q0 6 -6 35l-309 1337q-8 35 -47 37h-275q-39 -2 -47 -37l-309 -1337q-6 -29 -6 -35zM254 1577q-2 -18 33 -21h108q25 0 41 25l103 129l102 -129 q16 -25 41 -25h109q35 2 32 21q0 12 -8 22l-160 238q-12 16 -24 30.5t-37 14.5h-111q-27 0 -38 -14.5t-23 -30.5l-160 -238q-8 -10 -8 -22zM387 516l150 680l149 -680h-299z" />
<glyph unicode="&#xc3;" horiz-adv-x="1075" d="M37 43q0 -18 12 -30.5t33 -12.5h151q37 4 46 45l61 258h393l62 -258q8 -41 45 -45h151q18 0 31.5 12.5t13.5 30.5q0 6 -6 35l-309 1337q-8 35 -47 37h-275q-39 -2 -47 -37l-309 -1337q-6 -29 -6 -35zM182 1720q0 -8 8 -24q41 -70 57.5 -90.5t28.5 -20.5q10 0 21 8 q14 8 48 33t75 25q37 0 65.5 -12.5t53.5 -24.5t53.5 -25.5t69.5 -13.5q68 0 127 35t79 51q25 14 25 31q0 8 -8 24q-43 68 -59.5 89.5t-26.5 21.5t-21 -8q-16 -10 -51 -36t-74 -26t-66.5 11.5t-51.5 25.5q-25 12 -54.5 25.5t-68.5 13.5q-70 0 -128.5 -34t-76.5 -48 q-25 -14 -25 -31zM387 516l150 680l149 -680h-299z" />
<glyph unicode="&#xc4;" horiz-adv-x="1075" d="M37 43q0 -18 12 -30.5t33 -12.5h151q37 4 46 45l61 258h393l62 -258q8 -41 45 -45h151q18 0 31.5 12.5t13.5 30.5q0 6 -6 35l-309 1337q-8 35 -47 37h-275q-39 -2 -47 -37l-309 -1337q-6 -29 -6 -35zM203 1655q0 -25 15 -41.5t40 -16.5h143q23 0 39.5 16.5t16.5 41.5v112 q0 23 -16.5 40.5t-39.5 17.5h-143q-25 0 -40 -17.5t-15 -40.5v-112zM387 516l150 680l149 -680h-299zM610 1655q0 -25 15.5 -41.5t40.5 -16.5h143q23 0 39 16.5t16 41.5v112q0 23 -16.5 40.5t-38.5 17.5h-143q-25 0 -40.5 -17.5t-15.5 -40.5v-112z" />
<glyph unicode="&#xc5;" horiz-adv-x="1075" d="M37 43q0 -18 12 -30.5t33 -12.5h151q37 4 46 45l61 258h393l62 -258q8 -41 45 -45h151q18 0 31.5 12.5t13.5 30.5q0 6 -6 35l-309 1337q-4 2 -2 8q57 68 59 158q0 96 -71.5 167t-169.5 71t-168 -71t-70 -167q0 -90 55 -156q-2 -4 -2 -10l-309 -1337q-6 -29 -6 -35z M385 516l150 680l149 -680h-299zM412 1581q0 47 36.5 88t88.5 41q51 0 90 -41t39 -88q0 -43 -33 -83t-76 -46h-41q-45 6 -74.5 46t-29.5 83z" />
<glyph unicode="&#xc6;" horiz-adv-x="1501" d="M27 41q0 -18 16 -29.5t37 -11.5h135q43 -2 66 57l94 260h317v-260q0 -25 15.5 -41t44.5 -16h624q23 0 40.5 17.5t17.5 41.5v99q0 25 -17.5 42t-40.5 17h-434v440h363q23 0 40 17.5t17 42.5v96q0 25 -17.5 42t-39.5 17h-363v363h424q23 0 40 17.5t17 41.5v99q0 25 -17 42 t-40 17h-784q-53 -4 -68 -51l-483 -1344q-4 -8 -4 -16zM446 518l246 682v-682h-246z" />
<glyph unicode="&#xc7;" horiz-adv-x="1009" d="M94 352q0 -166 91 -265t233 -126l-37 -127q-4 -6 -2 -12q0 -27 24 -35l46 -14q8 -2 14 -2q20 0 30.5 16t36.5 16q25 0 48.5 -14t23.5 -59q0 -74 -80 -78q-35 0 -53 14.5t-47 32.5q-14 10 -25 10q-20 0 -30 -18l-21 -29q-6 -12 -6 -24q0 -18 16 -33q37 -29 81 -49.5 t87 -20.5q121 0 176.5 61.5t55.5 139.5q0 82 -56.5 127t-103.5 45q-27 0 -39 -2t-37 -12l19 59q166 8 282.5 110.5t116.5 288.5v35q0 23 -17.5 40t-41.5 17h-131q-25 0 -42.5 -17t-17.5 -40v-35q0 -80 -48 -131t-124 -51q-80 0 -126 51t-46 131v746q0 78 47 130t125 52 t125 -51t47 -131v-35q0 -25 17.5 -41t42.5 -16h131q25 0 42 16t17 41v35q0 190 -123 294.5t-299 104.5q-178 0 -300 -104.5t-122 -294.5v-746z" />
<glyph unicode="&#xc8;" horiz-adv-x="937" d="M113 57q0 -25 17 -41t42 -16h641q23 0 40 17.5t17 41.5v99q0 25 -17 42t-40 17h-448v440h376q23 0 40.5 17.5t17.5 42.5v96q0 25 -17.5 42t-40.5 17h-376v363h438q23 0 40 17.5t17 41.5v99q0 25 -17.5 42t-39.5 17h-631q-25 0 -42 -17.5t-17 -39.5v-1338zM289 1817 q0 -8 6 -19l131 -186q18 -25 30.5 -34t43.5 -9h73q47 4 50 43q0 14 -9 30l-71 156q-12 23 -31.5 40t-42.5 17h-135q-18 0 -31.5 -12t-13.5 -26z" />
<glyph unicode="&#xc9;" horiz-adv-x="937" d="M113 57q0 -25 17 -41t42 -16h641q23 0 40 17.5t17 41.5v99q0 25 -17 42t-40 17h-448v440h376q23 0 40.5 17.5t17.5 42.5v96q0 25 -17.5 42t-40.5 17h-376v363h438q23 0 40 17.5t17 41.5v99q0 25 -17.5 42t-39.5 17h-631q-25 0 -42 -17.5t-17 -39.5v-1338zM385 1608 q2 -39 49 -43h74q29 0 42 9t32 34l131 186q6 10 6 18q0 14 -14.5 26.5t-30.5 12.5h-135q-25 0 -44.5 -17t-29.5 -40l-72 -156q-8 -16 -8 -30z" />
<glyph unicode="&#xca;" horiz-adv-x="937" d="M113 57q0 -25 17 -41t42 -16h641q23 0 40 17.5t17 41.5v99q0 25 -17 42t-40 17h-448v440h376q23 0 40.5 17.5t17.5 42.5v96q0 25 -17.5 42t-40.5 17h-376v363h438q23 0 40 17.5t17 41.5v99q0 25 -17.5 42t-39.5 17h-631q-25 0 -42 -17.5t-17 -39.5v-1338zM193 1579 q-2 -18 32 -20h109q25 0 41 24l102 129l103 -129q16 -25 41 -24h108q35 2 33 20q0 10 -8 23l-160 237q-12 16 -24.5 30.5t-37.5 14.5h-110q-27 0 -38 -14.5t-24 -30.5l-159 -237q-8 -12 -8 -23z" />
<glyph unicode="&#xcb;" horiz-adv-x="937" d="M113 57q0 -25 17 -41t42 -16h641q23 0 40 17.5t17 41.5v99q0 25 -17 42t-40 17h-448v440h376q23 0 40.5 17.5t17.5 42.5v96q0 25 -17.5 42t-40.5 17h-376v363h438q23 0 40 17.5t17 41.5v99q0 25 -17.5 42t-39.5 17h-631q-25 0 -42 -17.5t-17 -39.5v-1338zM143 1659 q0 -25 15.5 -41t40.5 -16h143q23 0 39 16t16 41v113q0 23 -16 40t-39 17h-143q-25 0 -40.5 -17.5t-15.5 -39.5v-113zM551 1659q0 -25 15.5 -41t39.5 -16h144q23 0 39 16t16 41v113q0 23 -16.5 40t-38.5 17h-144q-25 0 -40 -17.5t-15 -39.5v-113z" />
<glyph unicode="&#xcc;" horiz-adv-x="501" d="M27 1815q0 -8 6 -19l131 -186q18 -25 30.5 -34t43.5 -9h73q47 2 49 43q0 16 -8 30l-71 156q-12 23 -32 40t-42 17h-135q-18 0 -31.5 -12t-13.5 -26zM135 57q0 -25 17.5 -41t42.5 -16h133q25 0 42 16.5t17 40.5v1338q0 23 -17.5 40t-41.5 17h-133q-25 0 -42.5 -17.5 t-17.5 -39.5v-1338z" />
<glyph unicode="&#xcd;" horiz-adv-x="503" d="M113 57q0 -25 17 -41t42 -16h133q25 0 42.5 16.5t17.5 40.5v1338q0 23 -17.5 40t-42.5 17h-133q-25 0 -42 -17.5t-17 -39.5v-1338zM141 1610q2 -41 49 -43h74q29 0 42 9t32 34l131 186q6 10 6 19q0 14 -14.5 26t-30.5 12h-135q-25 0 -44.5 -17t-29.5 -40l-71 -156 q-8 -14 -9 -30z" />
<glyph unicode="&#xce;" horiz-adv-x="542" d="M-14 1581q-2 -18 32 -20h109q25 0 41 24l102 129l103 -129q16 -25 41 -24h108q35 2 33 20q-2 12 -8 23l-160 237q-12 16 -24 30.5t-37 14.5h-111q-27 0 -38 -14t-23 -31l-160 -237q-6 -10 -8 -23zM145 57q0 -25 17.5 -41t42.5 -16h133q25 0 42 16.5t17 40.5v1338 q0 23 -17.5 40t-41.5 17h-133q-25 0 -42.5 -17.5t-17.5 -39.5v-1338z" />
<glyph unicode="&#xcf;" horiz-adv-x="614" d="M-25 1657q0 -25 15.5 -41.5t40.5 -16.5h143q23 0 39 16.5t16 41.5v112q0 23 -16 40.5t-39 17.5h-143q-25 0 -40.5 -17.5t-15.5 -40.5v-112zM174 57q0 -25 17.5 -41t41.5 -16h134q25 0 42 16.5t17 40.5v1338q0 23 -17.5 40t-41.5 17h-134q-25 0 -42 -17.5t-17 -39.5v-1338 zM383 1657q0 -25 15.5 -41.5t39.5 -16.5h144q23 0 39 16.5t16 41.5v112q0 23 -16.5 40.5t-38.5 17.5h-144q-25 0 -40 -17.5t-15 -40.5v-112z" />
<glyph unicode="&#xd0;" horiz-adv-x="1042" d="M-57 623q0 -25 17 -42.5t40 -17.5h111v-506q0 -25 17 -41t42 -16h489q109 0 196 79t87 187v920q0 106 -87 186t-196 80h-489q-25 0 -42 -17.5t-17 -39.5v-631h-111q-23 0 -40 -17.5t-17 -41.5v-82zM362 209v354h103q23 0 40 17.5t17 42.5v82q0 25 -17.5 42t-39.5 17h-103 v479h193q61 0 97 -38t36 -107v-746q0 -72 -36 -107.5t-97 -35.5h-193z" />
<glyph unicode="&#xd1;" horiz-adv-x="1150" d="M102 57q0 -25 17.5 -41t42.5 -16h133q25 0 42 16.5t17 40.5v908l400 -908q8 -23 21 -40t44 -17h168q25 0 42.5 16.5t17.5 40.5v1336q0 23 -17.5 40t-42.5 17h-133q-25 0 -42 -17.5t-17 -39.5v-906l-400 908q-10 20 -22.5 38.5t-42.5 18.5h-168q-25 0 -42.5 -17.5 t-17.5 -39.5v-1338zM242 1714q0 -8 8 -24q41 -70 57.5 -90.5t28.5 -20.5q10 2 20 8q14 8 48 33t75 25q37 0 65.5 -12.5t53.5 -24.5t53.5 -25.5t69.5 -13.5q68 0 127 34.5t80 51.5q25 16 24 31q0 8 -8 24q-43 68 -59.5 89.5t-26.5 21.5q-10 -2 -20 -9q-16 -10 -51 -35.5 t-74 -25.5t-67 11.5t-52 25.5q-25 12 -54.5 25.5t-68.5 13.5q-70 0 -128 -34t-77 -48q-25 -16 -24 -31z" />
<glyph unicode="&#xd2;" horiz-adv-x="1034" d="M94 358q0 -193 122 -296t300 -103q176 0 299 103.5t123 295.5v740q0 190 -123 294.5t-299 104.5q-178 0 -300 -104.5t-122 -294.5v-740zM289 1817q0 -8 6 -19l131 -186q18 -25 30.5 -34t43.5 -9h73q47 4 50 43q0 14 -9 30l-71 156q-12 23 -31.5 40t-42.5 17h-135 q-18 0 -31.5 -12t-13.5 -26zM344 358v740q0 80 46 131t126 51q78 0 125 -51t47 -131v-740q0 -80 -47 -131t-125 -51q-80 0 -126 51.5t-46 130.5z" />
<glyph unicode="&#xd3;" horiz-adv-x="1034" d="M94 358q0 -193 122 -296t300 -103q176 0 299 103.5t123 295.5v740q0 190 -123 294.5t-299 104.5q-178 0 -300 -104.5t-122 -294.5v-740zM344 358v740q0 80 46 131t126 51q78 0 125 -51t47 -131v-740q0 -80 -47 -131t-125 -51q-80 0 -126 51.5t-46 130.5zM418 1610 q2 -41 49 -43h74q29 0 42 9t31 34l131 186q6 10 7 19q0 14 -14.5 26t-30.5 12h-136q-25 0 -44 -17t-29 -40l-72 -156q-8 -14 -8 -30z" />
<glyph unicode="&#xd4;" horiz-adv-x="1034" d="M94 358q0 -193 122 -296t300 -103q176 0 299 103.5t123 295.5v740q0 190 -123 294.5t-299 104.5q-178 0 -300 -104.5t-122 -294.5v-740zM238 1579q-2 -18 32 -20h109q25 0 41 24l102 129l103 -129q16 -25 41 -24h108q35 2 33 20q0 10 -8 23l-160 237q-12 16 -24 30.5 t-37 14.5h-111q-27 0 -38 -14.5t-23 -30.5l-160 -237q-8 -12 -8 -23zM344 358v740q0 80 46 131t126 51q78 0 125 -51t47 -131v-740q0 -80 -47 -131t-125 -51q-80 0 -126 51.5t-46 130.5z" />
<glyph unicode="&#xd5;" horiz-adv-x="1034" d="M94 358q0 -193 122 -296t300 -103q176 0 299 103.5t123 295.5v740q0 190 -123 294.5t-299 104.5q-178 0 -300 -104.5t-122 -294.5v-740zM168 1720q0 -8 8 -24q41 -70 57.5 -90.5t28.5 -20.5q10 0 21 8q14 8 48 33t75 25q37 0 65 -12.5t53 -24.5t53.5 -25.5t69.5 -13.5 q68 0 127.5 35t79.5 51q25 14 25 31q0 8 -9 24q-43 68 -59 89.5t-27 21.5q-10 0 -20 -8q-16 -10 -51 -36t-74 -26t-66.5 11.5t-52.5 25.5q-25 12 -54.5 25.5t-68.5 13.5q-70 0 -128 -34t-76 -48q-25 -14 -25 -31zM344 358v740q0 80 46 131t126 51q78 0 125 -51t47 -131v-740 q0 -80 -47 -131t-125 -51q-80 0 -126 51.5t-46 130.5z" />
<glyph unicode="&#xd6;" horiz-adv-x="1034" d="M94 358q0 -193 122 -296t300 -103q176 0 299 103.5t123 295.5v740q0 190 -123 294.5t-299 104.5q-178 0 -300 -104.5t-122 -294.5v-740zM186 1651q0 -25 15.5 -41.5t40.5 -16.5h143q23 0 39 16.5t16 41.5v112q0 23 -16 40.5t-39 17.5h-143q-25 0 -40.5 -17.5t-15.5 -40.5 v-112zM344 358v740q0 80 46 131t126 51q78 0 125 -51t47 -131v-740q0 -80 -47 -131t-125 -51q-80 0 -126 51.5t-46 130.5zM594 1651q0 -25 15.5 -41.5t39.5 -16.5h144q23 0 39 16.5t16 41.5v112q0 23 -16.5 40.5t-38.5 17.5h-144q-25 0 -40 -17.5t-15 -40.5v-112z" />
<glyph unicode="&#xd7;" horiz-adv-x="1107" d="M176 287q0 -20 14 -39l60 -60q20 -16 43 -16q20 0 39 16l221 222l219 -222q18 -16 39 -16q20 0 43 21l57 57q18 20 19 43q0 23 -17 37l-221 219l205 205q16 16 16 37q0 25 -20 45l-57 57q-18 16 -43 16q-20 0 -37 -14l-203 -205l-219 219q-18 16 -39 15q-25 2 -43 -15 l-59 -59q-16 -20 -17 -43q0 -20 17 -39l219 -219l-222 -219q-14 -20 -14 -43z" />
<glyph unicode="&#xd8;" horiz-adv-x="1144" d="M-4 74q0 -20 14 -37l80 -82q16 -16 39 -16t41 18l82 84q113 -86 280 -88q176 0 299 103.5t123 295.5v707l183 186q12 12 12 27q-2 23 -23 41l-79 82q-14 16 -35 16q-25 0 -45 -18l-72 -74q-55 86 -150.5 132t-212.5 46q-178 0 -299.5 -104.5t-121.5 -294.5v-746 q0 -66 14 -121l-113 -114q-16 -20 -16 -43zM360 352v746q0 80 46.5 131t125.5 51q78 0 125.5 -51t47.5 -131v-746q0 -80 -47.5 -131t-125.5 -51q-80 0 -126 51t-46 131z" />
<glyph unicode="&#xd9;" horiz-adv-x="1052" d="M102 358q0 -193 122 -296t300 -103q176 0 299 103.5t123 295.5v1037q0 23 -17.5 40t-41.5 17h-131q-25 0 -42.5 -17.5t-17.5 -39.5v-1037q0 -80 -47 -131t-125 -51q-80 0 -126 51.5t-46 130.5v1037q0 23 -17.5 40t-41.5 17h-131q-25 0 -42.5 -17.5t-17.5 -39.5v-1037z M307 1815q0 -8 6 -19l131 -186q18 -25 30.5 -34t43.5 -9h74q47 2 49 43q0 16 -8 30l-72 156q-12 23 -31.5 40t-42.5 17h-135q-18 0 -31.5 -12t-13.5 -26z" />
<glyph unicode="&#xda;" horiz-adv-x="1052" d="M102 358q0 -193 122 -296t300 -103q176 0 299 103.5t123 295.5v1037q0 23 -17.5 40t-41.5 17h-131q-25 0 -42.5 -17.5t-17.5 -39.5v-1037q0 -80 -47 -131t-125 -51q-80 0 -126 51.5t-46 130.5v1037q0 23 -17.5 40t-41.5 17h-131q-25 0 -42.5 -17.5t-17.5 -39.5v-1037z M430 1612q2 -39 49 -43h74q29 0 42 9t32 34l131 186q6 10 6 19q0 14 -14.5 26t-30.5 12h-135q-25 0 -44.5 -17t-29.5 -40l-72 -156q-8 -16 -8 -30z" />
<glyph unicode="&#xdb;" horiz-adv-x="1052" d="M102 358q0 -193 122 -296t300 -103q176 0 299 103.5t123 295.5v1037q0 23 -17.5 40t-41.5 17h-131q-25 0 -42.5 -17.5t-17.5 -39.5v-1037q0 -80 -47 -131t-125 -51q-80 0 -126 51.5t-46 130.5v1037q0 23 -17.5 40t-41.5 17h-131q-25 0 -42.5 -17.5t-17.5 -39.5v-1037z M242 1581q-2 -18 32 -20h109q25 0 41 24l102 129l103 -129q16 -25 41 -24h108q35 2 33 20q0 12 -8 23l-160 237q-12 16 -24 30.5t-37 14.5h-111q-27 0 -38 -14t-23 -31l-160 -237q-8 -10 -8 -23z" />
<glyph unicode="&#xdc;" horiz-adv-x="1052" d="M102 358q0 -193 122 -296t300 -103q176 0 299 103.5t123 295.5v1037q0 23 -17.5 40t-41.5 17h-131q-25 0 -42.5 -17.5t-17.5 -39.5v-1037q0 -80 -47 -131t-125 -51q-80 0 -126 51.5t-46 130.5v1037q0 23 -17.5 40t-41.5 17h-131q-25 0 -42.5 -17.5t-17.5 -39.5v-1037z M199 1653q0 -25 15 -41.5t40 -16.5h143q23 0 39.5 16.5t16.5 41.5v112q0 23 -16.5 40.5t-39.5 17.5h-143q-25 0 -40 -17.5t-15 -40.5v-112zM606 1653q0 -25 15.5 -41.5t40.5 -16.5h143q23 0 39 16.5t16 41.5v112q0 23 -16.5 40.5t-38.5 17.5h-143q-25 0 -40.5 -17.5 t-15.5 -40.5v-112z" />
<glyph unicode="&#xdd;" horiz-adv-x="1042" d="M27 1409q-2 -8 4 -20l362 -717v-615q0 -25 17.5 -41t42.5 -16h135q25 0 42 16.5t17 40.5v615l363 717q6 12 4 20q-2 41 -45 43h-131q-25 0 -40.5 -12.5t-33.5 -50.5l-244 -471l-244 471q-20 39 -34.5 51t-38.5 12h-131q-43 -2 -45 -43zM410 1610q2 -41 49 -43h73 q29 0 42.5 9t31.5 34l131 186q6 10 6 19q0 14 -14 26t-31 12h-135q-25 0 -44 -17t-30 -40l-71 -156q-8 -14 -8 -30z" />
<glyph unicode="&#xde;" horiz-adv-x="972" d="M113 57q0 -25 17 -41t42 -16h133q25 0 42.5 16.5t17.5 40.5v269h301q98 0 168.5 68.5t70.5 168.5v260q0 106 -82 186.5t-190 80.5h-268v305q0 23 -17.5 40t-42.5 17h-133q-25 0 -42 -17.5t-17 -39.5v-1338zM365 535v346h161q61 0 94 -29t33 -107v-77q0 -80 -32.5 -106.5 t-94.5 -26.5h-161z" />
<glyph unicode="&#xdf;" horiz-adv-x="1071" d="M102 57q0 -25 17.5 -41t42.5 -16h112q25 0 42.5 16.5t17.5 40.5v1041q0 80 49 131t129 51q78 0 132 -51t54 -131v-66q0 -55 -25.5 -93t-80.5 -38h-55q-18 0 -31.5 -13.5t-13.5 -31.5v-100q0 -18 13 -31.5t32 -13.5h36q49 0 98.5 -23.5t49.5 -132.5v-205 q0 -84 -27.5 -108.5t-97.5 -24.5h-16q-25 0 -41.5 -17.5t-16.5 -41.5v-99q0 -25 16.5 -42t41.5 -17h118q106 0 194.5 68.5t88.5 171.5v307q0 94 -44 166.5t-161 103.5q80 33 117 93.5t37 187.5q0 184 -123 291.5t-289 107.5q-178 0 -297 -104.5t-119 -294.5v-1041z" />
<glyph unicode="&#xe0;" horiz-adv-x="933" d="M53 270q0 -84 28 -140t71 -90t95 -48.5t101 -14.5q80 0 148.5 32t111.5 93v-45q0 -25 17.5 -41t42.5 -16h110q25 0 42.5 16.5t17.5 40.5v717q0 147 -89.5 251.5t-271.5 104.5q-168 0 -272.5 -97t-104.5 -240v-19q0 -25 16.5 -41t41.5 -16h108q23 0 40.5 16.5t17.5 40.5 v19q0 59 38.5 96t102.5 37q68 0 105.5 -35t37.5 -90q0 -45 -23.5 -67.5t-80.5 -47.5l-250 -102q-92 -39 -146.5 -113t-54.5 -201zM291 1477q0 -8 6 -19l131 -186q18 -25 30.5 -34t43.5 -9h73q47 4 50 43q0 14 -9 31l-71 155q-12 23 -31.5 40.5t-42.5 17.5h-135 q-18 0 -31.5 -12.5t-13.5 -26.5zM297 301q0 29 14.5 63.5t63.5 59.5l233 111v-213q0 -63 -46 -111.5t-113 -48.5q-98 0 -125 43t-27 96z" />
<glyph unicode="&#xe1;" horiz-adv-x="933" d="M53 270q0 -84 28 -140t71 -90t95 -48.5t101 -14.5q80 0 148.5 32t111.5 93v-45q0 -25 17.5 -41t42.5 -16h110q25 0 42.5 16.5t17.5 40.5v717q0 147 -89.5 251.5t-271.5 104.5q-168 0 -272.5 -97t-104.5 -240v-19q0 -25 16.5 -41t41.5 -16h108q23 0 40.5 16.5t17.5 40.5 v19q0 59 38.5 96t102.5 37q68 0 105.5 -35t37.5 -90q0 -45 -23.5 -67.5t-80.5 -47.5l-250 -102q-92 -39 -146.5 -113t-54.5 -201zM297 301q0 29 14.5 63.5t63.5 59.5l233 111v-213q0 -63 -46 -111.5t-113 -48.5q-98 0 -125 43t-27 96zM373 1274q2 -41 49 -43h74q29 0 42 9 t31 34l131 186q6 10 7 19q0 14 -14.5 26.5t-30.5 12.5h-136q-25 0 -44 -17.5t-29 -40.5l-72 -155q-8 -14 -8 -31z" />
<glyph unicode="&#xe2;" horiz-adv-x="933" d="M53 270q0 -84 28 -140t71 -90t95 -48.5t101 -14.5q80 0 148.5 32t111.5 93v-45q0 -25 17.5 -41t42.5 -16h110q25 0 42.5 16.5t17.5 40.5v717q0 147 -89.5 251.5t-271.5 104.5q-168 0 -272.5 -97t-104.5 -240v-19q0 -25 16.5 -41t41.5 -16h108q23 0 40.5 16.5t17.5 40.5 v19q0 59 38.5 96t102.5 37q68 0 105.5 -35t37.5 -90q0 -45 -23.5 -67.5t-80.5 -47.5l-250 -102q-92 -39 -146.5 -113t-54.5 -201zM199 1233q-2 -18 32 -21h109q25 0 41 25l102 129l103 -129q16 -25 41 -25h108q35 2 33 21q-2 12 -8 22l-160 238q-12 16 -24 30.5t-37 14.5 h-111q-27 0 -38 -14.5t-23 -30.5l-160 -238q-6 -10 -8 -22zM297 301q0 29 14.5 63.5t63.5 59.5l233 111v-213q0 -63 -46 -111.5t-113 -48.5q-98 0 -125 43t-27 96z" />
<glyph unicode="&#xe3;" horiz-adv-x="946" d="M53 270q0 -84 28 -140t71 -90t95 -48.5t101 -14.5q80 0 148.5 32t111.5 93v-45q0 -25 17.5 -41t42.5 -16h110q25 0 42.5 16.5t17.5 40.5v717q0 147 -89.5 251.5t-271.5 104.5q-168 0 -272.5 -97t-104.5 -240v-19q0 -25 16.5 -41t41.5 -16h108q23 0 40.5 16.5t17.5 40.5 v19q0 59 38.5 96t102.5 37q68 0 105.5 -35t37.5 -90q0 -45 -23.5 -67.5t-80.5 -47.5l-250 -102q-92 -39 -146.5 -113t-54.5 -201zM139 1386q0 -8 8 -24q41 -70 57.5 -90.5t28.5 -20.5q10 2 21 9q14 8 48 32.5t75 24.5q37 0 65.5 -12.5t53.5 -24.5t53.5 -25.5t68.5 -13.5 q68 0 127.5 35t79.5 51q25 16 25 31q0 8 -8 24q-43 68 -59.5 89.5t-26.5 21.5q-10 -2 -21 -8q-16 -10 -51 -36t-74 -26t-66.5 11.5t-51.5 25.5q-25 12 -54.5 25.5t-68.5 13.5q-70 0 -128.5 -33.5t-76.5 -48.5q-25 -16 -25 -31zM297 301q0 29 14.5 63.5t63.5 59.5l233 111 v-213q0 -63 -46 -111.5t-113 -48.5q-98 0 -125 43t-27 96z" />
<glyph unicode="&#xe4;" horiz-adv-x="933" d="M53 270q0 -84 28 -140t71 -90t95 -48.5t101 -14.5q80 0 148.5 32t111.5 93v-45q0 -25 17.5 -41t42.5 -16h110q25 0 42.5 16.5t17.5 40.5v717q0 147 -89.5 251.5t-271.5 104.5q-168 0 -272.5 -97t-104.5 -240v-19q0 -25 16.5 -41t41.5 -16h108q23 0 40.5 16.5t17.5 40.5 v19q0 59 38.5 96t102.5 37q68 0 105.5 -35t37.5 -90q0 -45 -23.5 -67.5t-80.5 -47.5l-250 -102q-92 -39 -146.5 -113t-54.5 -201zM141 1313q0 -25 15.5 -41.5t40.5 -16.5h143q23 0 39 16.5t16 41.5v112q0 23 -16.5 40.5t-38.5 17.5h-143q-25 0 -40.5 -17.5t-15.5 -40.5v-112 zM297 301q0 29 14.5 63.5t63.5 59.5l233 111v-213q0 -63 -46 -111.5t-113 -48.5q-98 0 -125 43t-27 96zM549 1313q0 -25 15.5 -41.5t39.5 -16.5h144q23 0 39 16.5t16 41.5v112q0 23 -16.5 40.5t-38.5 17.5h-144q-25 0 -40 -17.5t-15 -40.5v-112z" />
<glyph unicode="&#xe5;" horiz-adv-x="935" d="M53 270q0 -84 28 -140t71 -90t95 -48.5t101 -14.5q80 0 148.5 32t111.5 93v-45q0 -25 17.5 -41t42.5 -16h110q25 0 42.5 16.5t17.5 40.5v717q0 102 -44 186t-130 130q70 70 73 174q0 96 -71.5 167.5t-169.5 71.5t-168 -71.5t-70 -167.5q2 -94 59 -162 q-100 -39 -158.5 -122t-58.5 -187v-19q0 -25 16.5 -41t41.5 -16h108q23 0 40.5 16.5t17.5 40.5v19q0 59 38.5 96t102.5 37q68 0 105.5 -35t37.5 -90q0 -45 -23.5 -67.5t-80.5 -47.5l-250 -102q-92 -39 -146.5 -113t-54.5 -201zM297 301q0 29 14.5 63.5t63.5 59.5l233 111 v-213q0 -63 -46 -111.5t-113 -48.5q-98 0 -125 43t-27 96zM371 1264q0 47 36.5 88t88.5 41q51 0 90 -41t39 -88q0 -49 -39 -90t-90 -41t-88 40.5t-37 90.5z" />
<glyph unicode="&#xe6;" horiz-adv-x="1452" d="M53 270q0 -84 29 -142t75 -94t101.5 -52.5t106.5 -16.5q111 0 189.5 39t127.5 107q49 -68 124 -107t185 -39q168 0 276.5 104.5t108.5 256.5v6q0 23 -17.5 40t-41.5 17h-113q-25 0 -42 -17.5t-17 -39.5v-6q0 -66 -43 -111t-111 -45t-109.5 45t-41.5 111v168h477 q25 0 42 16t17 41v219q0 150 -108.5 255t-276.5 105q-156 -4 -256 -90q-90 86 -258 90q-168 0 -272.5 -97t-104.5 -240v-19q0 -25 16.5 -41t41.5 -16h108q23 0 40.5 16.5t17.5 40.5v19q0 59 38.5 96t102.5 37q68 0 105.5 -35t37.5 -90q0 -45 -23.5 -67.5t-80.5 -47.5 l-250 -102q-92 -39 -146.5 -113t-54.5 -201zM297 301q0 29 14.5 63.5t63.5 59.5l233 111v-191q0 -61 -33.5 -122.5t-125.5 -61.5q-98 0 -125 44t-27 97zM840 676v94q0 63 42 109.5t109 46.5q68 0 111 -46t43 -110v-94h-305z" />
<glyph unicode="&#xe7;" horiz-adv-x="897" d="M74 326q0 -127 73.5 -221.5t196.5 -124.5l-41 -146q-4 -6 -2 -12q0 -27 25 -35l45 -14q8 -2 14 -2q20 0 30.5 16t37.5 16q25 0 48 -14t23 -59q0 -74 -80 -78q-35 0 -53 14.5t-47 32.5q-14 10 -25 10q-20 0 -30 -18l-21 -29q-6 -12 -6 -24q0 -18 17 -33q37 -29 80.5 -49.5 t86.5 -20.5q121 0 176.5 61.5t55.5 139.5q0 82 -56.5 127t-103.5 45q-27 0 -39 -2t-37 -12l23 71q162 6 264 109.5t102 251.5v16q0 23 -17 40t-42 17h-113q-25 0 -42 -17t-17 -40v-16q0 -63 -39 -109.5t-108 -46.5q-68 0 -108 45t-40 111v444q0 63 40 109.5t108 46.5 q70 0 108.5 -43t38.5 -105q0 -25 17.5 -41t41.5 -16h113q25 0 42 16.5t17 40.5q0 147 -105 249.5t-273 102.5t-273.5 -105t-105.5 -255v-444z" />
<glyph unicode="&#xe8;" d="M74 326q0 -152 107.5 -256.5t275.5 -104.5t276.5 104.5t108.5 256.5v6q0 23 -17.5 40t-42.5 17h-112q-25 0 -42.5 -17.5t-17.5 -39.5v-6q0 -66 -43 -111t-110 -45q-68 0 -110 45t-42 111v168h477q25 0 42.5 16t17.5 41v219q0 150 -108.5 255t-276.5 105t-275.5 -105 t-107.5 -255v-444zM233 1470q0 -8 7 -18l131 -186q18 -25 30.5 -34t42.5 -9h74q47 2 49 43q0 16 -8 30l-72 156q-12 23 -31.5 40t-41.5 17h-135q-18 0 -32 -12t-14 -27zM305 676v94q0 63 42 109.5t110 46.5t110.5 -46t42.5 -110v-94h-305z" />
<glyph unicode="&#xe9;" d="M74 326q0 -152 107.5 -256.5t275.5 -104.5t276.5 104.5t108.5 256.5v6q0 23 -17.5 40t-42.5 17h-112q-25 0 -42.5 -17.5t-17.5 -39.5v-6q0 -66 -43 -111t-110 -45q-68 0 -110 45t-42 111v168h477q25 0 42.5 16t17.5 41v219q0 150 -108.5 255t-276.5 105t-275.5 -105 t-107.5 -255v-444zM305 676v94q0 63 42 109.5t110 46.5t110.5 -46t42.5 -110v-94h-305zM367 1266q2 -41 49 -43h73q29 0 42.5 9t31.5 34l131 186q6 10 6 18q0 14 -14 26.5t-31 12.5h-135q-25 0 -44 -17t-30 -40l-71 -156q-8 -14 -8 -30z" />
<glyph unicode="&#xea;" d="M74 326q0 -152 107.5 -256.5t275.5 -104.5t276.5 104.5t108.5 256.5v6q0 23 -17.5 40t-42.5 17h-112q-25 0 -42.5 -17.5t-17.5 -39.5v-6q0 -66 -43 -111t-110 -45q-68 0 -110 45t-42 111v168h477q25 0 42.5 16t17.5 41v219q0 150 -108.5 255t-276.5 105t-275.5 -105 t-107.5 -255v-444zM172 1233q-2 -18 33 -21h108q25 0 41 25l103 129l102 -129q16 -25 41 -25h109q35 2 32 21q0 12 -8 22l-160 238q-12 16 -24 30.5t-37 14.5h-111q-27 0 -38 -14.5t-23 -30.5l-160 -238q-8 -10 -8 -22zM305 676v94q0 63 42 109.5t110 46.5t110.5 -46 t42.5 -110v-94h-305z" />
<glyph unicode="&#xeb;" d="M74 326q0 -152 107.5 -256.5t275.5 -104.5t276.5 104.5t108.5 256.5v6q0 23 -17.5 40t-42.5 17h-112q-25 0 -42.5 -17.5t-17.5 -39.5v-6q0 -66 -43 -111t-110 -45q-68 0 -110 45t-42 111v168h477q25 0 42.5 16t17.5 41v219q0 150 -108.5 255t-276.5 105t-275.5 -105 t-107.5 -255v-444zM127 1311q0 -25 15.5 -41.5t39.5 -16.5h144q23 0 39 16.5t16 41.5v112q0 23 -16.5 40.5t-38.5 17.5h-144q-25 0 -40 -17.5t-15 -40.5v-112zM305 676v94q0 63 42 109.5t110 46.5t110.5 -46t42.5 -110v-94h-305zM535 1311q0 -25 15 -41.5t40 -16.5h143 q23 0 39 16.5t16 41.5v112q0 23 -16 40.5t-39 17.5h-143q-25 0 -40 -17.5t-15 -40.5v-112z" />
<glyph unicode="&#xec;" horiz-adv-x="557" d="M102 1470q0 -8 7 -18l131 -186q18 -25 30.5 -34t42.5 -9h74q47 2 49 43q0 16 -8 30l-72 156q-12 23 -31.5 40t-41.5 17h-136q-18 0 -31.5 -12t-13.5 -27zM221 57q0 -25 17.5 -41t42.5 -16h112q25 0 42.5 16.5t17.5 40.5v981q0 23 -17.5 40.5t-42.5 17.5h-112 q-25 0 -42.5 -17.5t-17.5 -40.5v-981z" />
<glyph unicode="&#xed;" horiz-adv-x="573" d="M102 57q0 -25 17.5 -41t42.5 -16h112q25 0 42.5 16.5t17.5 40.5v981q0 23 -17.5 40.5t-42.5 17.5h-112q-25 0 -42.5 -17.5t-17.5 -40.5v-981zM135 1268q2 -39 49 -43h74q29 0 42 9t32 34l131 186q6 10 6 19q0 14 -14.5 26t-30.5 12h-135q-25 0 -44.5 -17t-29.5 -40 l-72 -156q-8 -16 -8 -30z" />
<glyph unicode="&#xee;" horiz-adv-x="776" d="M102 1233q-2 -18 33 -21h109q25 0 41 25l102 129l102 -129q16 -25 41 -25h109q35 2 33 21q0 12 -8 22l-160 238q-12 16 -24.5 30.5t-37.5 14.5h-110q-27 0 -38 -14.5t-24 -30.5l-159 -238q-8 -10 -9 -22zM272 57q0 -25 17.5 -41t42.5 -16h112q25 0 42.5 16.5t17.5 40.5 v981q0 23 -17.5 40.5t-42.5 17.5h-112q-25 0 -42.5 -17.5t-17.5 -40.5v-981z" />
<glyph unicode="&#xef;" horiz-adv-x="868" d="M102 1311q0 -25 15.5 -41.5t40.5 -16.5h143q23 0 39 16.5t16 41.5v112q0 23 -16 40.5t-39 17.5h-143q-25 0 -40.5 -17.5t-15.5 -40.5v-112zM317 57q0 -25 17.5 -41t42.5 -16h112q25 0 42.5 16.5t17.5 40.5v981q0 23 -17.5 40.5t-42.5 17.5h-112q-25 0 -42.5 -17.5 t-17.5 -40.5v-981zM510 1311q0 -25 15.5 -41.5t39.5 -16.5h144q23 0 39 16.5t16 41.5v112q0 23 -16.5 40.5t-38.5 17.5h-144q-25 0 -40 -17.5t-15 -40.5v-112z" />
<glyph unicode="&#xf0;" horiz-adv-x="1050" d="M94 328q0 -74 30 -141.5t82 -119t123.5 -83t151.5 -31.5t149.5 31.5t121 83t82 119t30.5 141.5v610h70q25 0 41 15.5t16 39.5v117q0 23 -16.5 39t-40.5 16h-70q0 70 -30.5 137.5t-82 122t-121 88t-149.5 33.5q-25 0 -41 -16.5t-16 -38.5v-107q0 -25 16.5 -40t40.5 -15 q70 0 111 -48t41 -110v-141q-51 39 -107.5 54.5t-113.5 15.5q-156 0 -237 -102.5t-81 -243.5v-426zM326 328v401q0 61 41 109.5t112 48.5q70 0 112 -48t42 -110v-401q0 -63 -42 -110.5t-112 -47.5q-72 0 -112.5 47t-40.5 111z" />
<glyph unicode="&#xf1;" horiz-adv-x="950" d="M102 57q0 -25 17.5 -41t42.5 -16h112q25 0 42.5 16.5t17.5 40.5v705q0 61 40 112.5t107 51.5q68 0 107 -45t39 -119v-705q0 -25 17.5 -41t41.5 -16h113q25 0 42 16.5t17 40.5v770q0 117 -76.5 210t-193.5 93q-90 0 -156.5 -44t-97.5 -113v65q0 23 -17.5 40.5t-42.5 17.5 h-112q-25 0 -42.5 -17.5t-17.5 -40.5v-981zM129 1386q0 -8 8 -24q41 -70 57.5 -90.5t28.5 -20.5q10 2 21 9q14 8 48 32.5t75 24.5q37 0 65 -12.5t53 -24.5t53.5 -25.5t69.5 -13.5q68 0 127.5 35t79.5 51q25 16 25 31q0 8 -9 24q-43 68 -59 89.5t-27 21.5q-10 -2 -20 -8 q-16 -10 -51 -36t-74 -26t-66.5 11.5t-52.5 25.5q-25 12 -54.5 25.5t-68.5 13.5q-70 0 -128 -33.5t-76 -48.5q-25 -16 -25 -31z" />
<glyph unicode="&#xf2;" d="M74 326q0 -152 107.5 -256.5t275.5 -104.5t276.5 104.5t108.5 256.5v444q0 150 -108.5 255t-276.5 105t-275.5 -105t-107.5 -255v-444zM209 1470q0 -8 6 -18l131 -186q18 -25 30.5 -34t43.5 -9h74q47 2 49 43q0 16 -8 30l-72 156q-12 23 -31.5 40t-42.5 17h-135 q-18 0 -31.5 -12t-13.5 -27zM305 326v444q0 63 42 109.5t110 46.5t110.5 -46t42.5 -110v-444q0 -66 -43 -111t-110 -45q-68 0 -110 45t-42 111z" />
<glyph unicode="&#xf3;" d="M74 326q0 -152 107.5 -256.5t275.5 -104.5t276.5 104.5t108.5 256.5v444q0 150 -108.5 255t-276.5 105t-275.5 -105t-107.5 -255v-444zM305 326v444q0 63 42 109.5t110 46.5t110.5 -46t42.5 -110v-444q0 -66 -43 -111t-110 -45q-68 0 -110 45t-42 111zM379 1266 q2 -41 49 -43h74q29 0 42 9t31 34l132 186q6 10 6 18q0 14 -14.5 26.5t-30.5 12.5h-136q-25 0 -44 -17t-29 -40l-72 -156q-8 -14 -8 -30z" />
<glyph unicode="&#xf4;" d="M74 326q0 -152 107.5 -256.5t275.5 -104.5t276.5 104.5t108.5 256.5v444q0 150 -108.5 255t-276.5 105t-275.5 -105t-107.5 -255v-444zM170 1233q-2 -18 33 -21h108q25 0 41 25l103 129l102 -129q16 -25 41 -25h109q35 2 32 21q-2 12 -8 22l-160 238q-12 16 -24 30.5 t-37 14.5h-111q-27 0 -38 -14.5t-23 -30.5l-160 -238q-6 -10 -8 -22zM305 326v444q0 63 42 109.5t110 46.5t110.5 -46t42.5 -110v-444q0 -66 -43 -111t-110 -45q-68 0 -110 45t-42 111z" />
<glyph unicode="&#xf5;" d="M74 326q0 -152 107.5 -256.5t275.5 -104.5t276.5 104.5t108.5 256.5v444q0 150 -108.5 255t-276.5 105t-275.5 -105t-107.5 -255v-444zM109 1386q0 -8 8 -24q41 -70 57 -90.5t29 -20.5q10 2 20 9q14 8 48 32.5t75 24.5q37 0 65.5 -12.5t53.5 -24.5t53.5 -25.5t69.5 -13.5 q68 0 127 35t80 51q25 16 24 31q0 8 -8 24q-43 68 -59.5 89.5t-26.5 21.5q-10 -2 -20 -8q-16 -10 -51.5 -36t-73.5 -26q-39 0 -67 11.5t-52 25.5q-25 12 -54.5 25.5t-68.5 13.5q-70 0 -128 -33.5t-77 -48.5q-25 -16 -24 -31zM305 326v444q0 63 42 109.5t110 46.5t110.5 -46 t42.5 -110v-444q0 -66 -43 -111t-110 -45q-68 0 -110 45t-42 111z" />
<glyph unicode="&#xf6;" d="M74 326q0 -152 107.5 -256.5t275.5 -104.5t276.5 104.5t108.5 256.5v444q0 150 -108.5 255t-276.5 105t-275.5 -105t-107.5 -255v-444zM129 1311q0 -25 15.5 -41.5t39.5 -16.5h144q23 0 39 16.5t16 41.5v112q0 23 -16.5 40.5t-38.5 17.5h-144q-25 0 -40 -17.5t-15 -40.5 v-112zM305 326v444q0 63 42 109.5t110 46.5t110.5 -46t42.5 -110v-444q0 -66 -43 -111t-110 -45q-68 0 -110 45t-42 111zM537 1311q0 -25 15 -41.5t40 -16.5h143q23 0 39.5 16.5t16.5 41.5v112q0 23 -16.5 40.5t-39.5 17.5h-143q-25 0 -40 -17.5t-15 -40.5v-112z" />
<glyph unicode="&#xf7;" horiz-adv-x="1107" d="M92 508q0 -25 16.5 -42t41.5 -17h804q23 0 40.5 17t17.5 42v82q0 25 -17.5 42t-40.5 17h-804q-25 0 -41.5 -17.5t-16.5 -41.5v-82zM436 125q0 -25 16.5 -42t41.5 -17h112q23 0 40.5 17t17.5 42v82q0 25 -17.5 42t-40.5 17h-112q-25 0 -41.5 -17.5t-16.5 -41.5v-82z M436 891q0 -25 16.5 -42.5t41.5 -17.5h112q23 0 40.5 17.5t17.5 42.5v82q0 25 -17.5 42t-40.5 17h-112q-25 0 -41.5 -17.5t-16.5 -41.5v-82z" />
<glyph unicode="&#xf8;" horiz-adv-x="995" d="M8 106q0 -20 15 -36l79 -82q16 -16 39 -17q23 0 41 19l60 61q102 -84 256 -86q168 0 276.5 104.5t108.5 256.5v465l131 135q12 12 12 24q-2 23 -22 43l-80 82q-18 18 -39 19q-20 0 -41 -21l-58 -59q-53 53 -126.5 84.5t-161.5 31.5q-168 0 -275.5 -105t-107.5 -255v-444 q0 -39 8 -76l-98 -100q-16 -20 -17 -44zM346 326v444q0 63 42 109.5t110 46.5t110.5 -46t42.5 -110v-444q0 -66 -43 -111t-110 -45q-68 0 -110 45t-42 111z" />
<glyph unicode="&#xf9;" horiz-adv-x="950" d="M90 268q0 -119 76 -211t194 -92q88 0 156 43t98 115v-66q0 -25 17.5 -41t42.5 -16h112q25 0 42.5 16.5t17.5 40.5v981q0 23 -17.5 40.5t-42.5 17.5h-112q-25 0 -42.5 -17.5t-17.5 -40.5v-704q0 -63 -39.5 -113.5t-107.5 -50.5q-70 0 -107.5 45t-37.5 119v704 q0 23 -17.5 40.5t-42.5 17.5h-112q-25 0 -42.5 -17.5t-17.5 -40.5v-770zM274 1473q0 -8 7 -19l131 -186q18 -25 30.5 -34t42.5 -9h74q47 4 49 43q0 14 -8 30l-72 156q-12 23 -31.5 40t-41.5 17h-136q-18 0 -31.5 -12t-13.5 -26z" />
<glyph unicode="&#xfa;" horiz-adv-x="950" d="M90 268q0 -119 76 -211t194 -92q88 0 156 43t98 115v-66q0 -25 17.5 -41t42.5 -16h112q25 0 42.5 16.5t17.5 40.5v981q0 23 -17.5 40.5t-42.5 17.5h-112q-25 0 -42.5 -17.5t-17.5 -40.5v-704q0 -63 -39.5 -113.5t-107.5 -50.5q-70 0 -107.5 45t-37.5 119v704 q0 23 -17.5 40.5t-42.5 17.5h-112q-25 0 -42.5 -17.5t-17.5 -40.5v-770zM379 1266q2 -41 49 -43h74q29 0 42 9t31 34l132 186q6 10 6 18q0 14 -14.5 26.5t-30.5 12.5h-136q-25 0 -44 -17t-29 -40l-72 -156q-8 -14 -8 -30z" />
<glyph unicode="&#xfb;" horiz-adv-x="950" d="M90 268q0 -119 76 -211t194 -92q88 0 156 43t98 115v-66q0 -25 17.5 -41t42.5 -16h112q25 0 42.5 16.5t17.5 40.5v981q0 23 -17.5 40.5t-42.5 17.5h-112q-25 0 -42.5 -17.5t-17.5 -40.5v-704q0 -63 -39.5 -113.5t-107.5 -50.5q-70 0 -107.5 45t-37.5 119v704 q0 23 -17.5 40.5t-42.5 17.5h-112q-25 0 -42.5 -17.5t-17.5 -40.5v-770zM203 1233q-2 -18 33 -21h108q25 0 41 25l102 129l103 -129q16 -25 41 -25h108q35 2 33 21q-2 12 -8 22l-160 238q-12 16 -24 30.5t-37 14.5h-111q-27 0 -38 -14.5t-23 -30.5l-160 -238q-6 -10 -8 -22z " />
<glyph unicode="&#xfc;" horiz-adv-x="950" d="M90 268q0 -119 76 -211t194 -92q88 0 156 43t98 115v-66q0 -25 17.5 -41t42.5 -16h112q25 0 42.5 16.5t17.5 40.5v981q0 23 -17.5 40.5t-42.5 17.5h-112q-25 0 -42.5 -17.5t-17.5 -40.5v-704q0 -63 -39.5 -113.5t-107.5 -50.5q-70 0 -107.5 45t-37.5 119v704 q0 23 -17.5 40.5t-42.5 17.5h-112q-25 0 -42.5 -17.5t-17.5 -40.5v-770zM133 1311q0 -25 15.5 -41.5t39.5 -16.5h144q23 0 39 16.5t16 41.5v112q0 23 -16.5 40.5t-38.5 17.5h-144q-25 0 -40 -17.5t-15 -40.5v-112zM541 1311q0 -25 15 -41.5t40 -16.5h143q23 0 39.5 16.5 t16.5 41.5v112q0 23 -16.5 40.5t-39.5 17.5h-143q-25 0 -40 -17.5t-15 -40.5v-112z" />
<glyph unicode="&#xfd;" horiz-adv-x="925" d="M23 1055q0 -6 4 -19l323 -1089q10 -33 12 -60q0 -25 -18 -40t-65 -15h-95q-25 0 -41 -17.5t-16 -41.5v-90q0 -25 16.5 -42.5t40.5 -17.5h111q104 0 177 47t116 197l325 1169q4 12 5 19q-2 37 -41 41h-148q-41 2 -53 -43l-199 -801l-213 801q-10 45 -53 43h-148 q-39 -4 -40 -41zM379 1268q2 -39 49 -43h74q29 0 42 9t31 34l132 186q6 10 6 19q0 14 -14.5 26t-30.5 12h-136q-25 0 -44 -17t-29 -40l-72 -156q-8 -16 -8 -30z" />
<glyph unicode="&#xfe;" horiz-adv-x="935" d="M94 -297q0 -23 17.5 -40t42.5 -17h112q25 0 42.5 17.5t17.5 39.5v420q31 -72 97 -115t157 -43q109 0 189.5 83t80.5 200v579q0 129 -79 216t-191 87q-90 0 -157 -44t-97 -113v422q0 23 -17.5 40t-42.5 17h-112q-25 0 -42.5 -17.5t-17.5 -39.5v-1692zM326 354v408 q0 61 40 112.5t107 51.5q68 0 106.5 -45t38.5 -119v-408q0 -74 -38.5 -119t-106.5 -45t-107.5 50.5t-39.5 113.5z" />
<glyph unicode="&#xff;" horiz-adv-x="925" d="M23 1055q0 -6 4 -19l323 -1089q10 -33 12 -60q0 -25 -18 -40t-65 -15h-95q-25 0 -41 -17.5t-16 -41.5v-90q0 -25 16.5 -42.5t40.5 -17.5h111q104 0 177 47t116 197l325 1169q4 12 5 19q-2 37 -41 41h-148q-41 2 -53 -43l-199 -801l-213 801q-10 45 -53 43h-148 q-39 -4 -40 -41zM145 1264q0 -25 15.5 -41.5t40.5 -16.5h143q23 0 39 16.5t16 41.5v112q0 23 -16 40.5t-39 17.5h-143q-25 0 -40.5 -17.5t-15.5 -40.5v-112zM553 1264q0 -25 15.5 -41.5t39.5 -16.5h144q23 0 39 16.5t16 41.5v112q0 23 -16.5 40.5t-38.5 17.5h-144 q-25 0 -40 -17.5t-15 -40.5v-112z" />
<glyph unicode="&#x152;" horiz-adv-x="1511" d="M94 352q0 -193 122 -296t300 -103q121 -2 217 47h653q23 0 40.5 17.5t17.5 41.5v99q0 25 -17.5 42t-40.5 17h-448v440h377q23 0 40 17.5t17 42.5v96q0 25 -17.5 42t-39.5 17h-377v363h438q23 0 40.5 17.5t17.5 41.5v99q0 25 -17.5 42t-40.5 17h-643q-96 45 -217 45 q-178 0 -300 -104.5t-122 -294.5v-746zM344 352v746q0 80 46 131t126 51q78 0 125 -51t47 -131v-746q0 -80 -47 -131t-125 -51q-80 0 -126 51t-46 131z" />
<glyph unicode="&#x153;" horiz-adv-x="1454" d="M74 326q0 -152 107.5 -256.5t275.5 -104.5q166 2 270 96q104 -94 266 -96q168 0 276.5 104.5t108.5 256.5v6q0 23 -17.5 40t-41.5 17h-113q-25 0 -42 -17.5t-17 -39.5v-6q0 -66 -43 -111t-111 -45t-109.5 45t-41.5 111v168h477q25 0 42 16t17 41v219q0 150 -108.5 255 t-276.5 105q-164 -4 -266 -98q-104 94 -270 98q-168 0 -275.5 -105t-107.5 -255v-444zM305 326v444q0 63 42 109.5t110 46.5t110.5 -46t42.5 -110v-444q0 -66 -43 -111t-110 -45q-68 0 -110 45t-42 111zM842 676v94q0 63 42 109.5t109 46.5q68 0 111 -46t43 -110v-94h-305z " />
<glyph unicode="&#x178;" horiz-adv-x="1042" d="M27 1409q-2 -8 4 -20l362 -717v-615q0 -25 17.5 -41t42.5 -16h135q25 0 42 16.5t17 40.5v615l363 717q6 12 4 20q-2 41 -45 43h-131q-25 0 -40.5 -12.5t-33.5 -50.5l-244 -471l-244 471q-20 39 -34.5 51t-38.5 12h-131q-43 -2 -45 -43zM195 1653q0 -25 15 -41.5t40 -16.5 h143q23 0 39.5 16.5t16.5 41.5v112q0 23 -16.5 40.5t-39.5 17.5h-143q-25 0 -40 -17.5t-15 -40.5v-112zM602 1653q0 -25 15.5 -41.5t39.5 -16.5h144q23 0 39 16.5t16 41.5v112q0 23 -16.5 40.5t-38.5 17.5h-144q-25 0 -40 -17.5t-15 -40.5v-112z" />
<glyph unicode="&#x2c6;" horiz-adv-x="815" d="M115 1233q-2 -18 32 -21h109q25 0 41 25l102 129l103 -129q16 -25 41 -25h108q35 2 33 21q0 12 -8 22l-160 238q-12 16 -24 30.5t-37 14.5h-111q-27 0 -38 -14.5t-23 -30.5l-160 -238q-8 -10 -8 -22z" />
<glyph unicode="&#x2dc;" horiz-adv-x="948" d="M115 1386q0 -8 8 -24q41 -70 57.5 -90.5t28.5 -20.5q10 2 20 9q14 8 48 32.5t75 24.5q37 0 65.5 -12.5t53.5 -24.5t53.5 -25.5t69.5 -13.5q68 0 127 35t80 51q25 16 24 31q0 8 -8 24q-43 68 -59.5 89.5t-26.5 21.5q-10 -2 -20 -8q-16 -10 -51 -36t-74 -26t-66.5 11.5 t-52.5 25.5q-25 12 -54.5 25.5t-68.5 13.5q-70 0 -128 -33.5t-77 -48.5q-25 -16 -24 -31z" />
<glyph unicode="&#x2000;" horiz-adv-x="943" />
<glyph unicode="&#x2001;" horiz-adv-x="1886" />
<glyph unicode="&#x2002;" horiz-adv-x="943" />
<glyph unicode="&#x2003;" horiz-adv-x="1886" />
<glyph unicode="&#x2004;" horiz-adv-x="628" />
<glyph unicode="&#x2005;" horiz-adv-x="471" />
<glyph unicode="&#x2006;" horiz-adv-x="314" />
<glyph unicode="&#x2007;" horiz-adv-x="314" />
<glyph unicode="&#x2008;" horiz-adv-x="235" />
<glyph unicode="&#x2009;" horiz-adv-x="377" />
<glyph unicode="&#x200a;" horiz-adv-x="104" />
<glyph unicode="&#x2010;" horiz-adv-x="827" d="M57 508q0 -25 16.5 -42t41.5 -17h596q23 0 40 17t17 42v82q0 25 -17.5 42t-39.5 17h-596q-25 0 -41.5 -17.5t-16.5 -41.5v-82z" />
<glyph unicode="&#x2011;" horiz-adv-x="827" d="M57 508q0 -25 16.5 -42t41.5 -17h596q23 0 40 17t17 42v82q0 25 -17.5 42t-39.5 17h-596q-25 0 -41.5 -17.5t-16.5 -41.5v-82z" />
<glyph unicode="&#x2012;" horiz-adv-x="827" d="M57 508q0 -25 16.5 -42t41.5 -17h596q23 0 40 17t17 42v82q0 25 -17.5 42t-39.5 17h-596q-25 0 -41.5 -17.5t-16.5 -41.5v-82z" />
<glyph unicode="&#x2013;" horiz-adv-x="1097" d="M68 508q0 -25 16 -42t41 -17h848q23 0 40 17t17 42v82q0 25 -17.5 42t-39.5 17h-848q-25 0 -41 -17.5t-16 -41.5v-82z" />
<glyph unicode="&#x2014;" horiz-adv-x="1331" d="M78 508q0 -25 16.5 -42t40.5 -17h1059q23 0 40 17t17 42v82q0 25 -17 42t-40 17h-1059q-25 0 -41 -17.5t-16 -41.5v-82z" />
<glyph unicode="&#x2018;" horiz-adv-x="477" d="M131 1032q0 -25 15.5 -40t37.5 -15h162q23 0 39 15.5t16 39.5v117q0 23 -16 39t-39 16h-72q-33 -2 -36 45q0 37 26.5 58.5t52.5 21.5h29q12 0 21.5 11.5t9.5 27.5v25q0 14 -9.5 26.5t-21.5 12.5h-29q-63 0 -124.5 -55.5t-61.5 -172.5v-172z" />
<glyph unicode="&#x2019;" horiz-adv-x="460" d="M49 1280q0 -25 15.5 -40t39.5 -15h72q33 2 37 -45q0 -37 -27.5 -58.5t-52.5 -21.5h-29q-12 0 -21 -12.5t-9 -26.5v-25q0 -16 9 -27.5t21 -11.5h29q61 0 123.5 54.5t62.5 173.5v172q0 23 -16 39t-37 16h-162q-25 0 -40 -16.5t-15 -38.5v-117z" />
<glyph unicode="&#x201a;" horiz-adv-x="477" d="M74 55q0 -25 15 -40t40 -15h72q33 2 37 -45q0 -37 -28 -58.5t-52 -21.5h-29q-12 0 -21.5 -11t-9.5 -28v-24q0 -14 9.5 -26.5t21.5 -12.5h29q61 0 123.5 55t62.5 172v172q0 23 -16.5 39t-36.5 16h-162q-25 0 -40 -16t-15 -39v-117z" />
<glyph unicode="&#x201c;" horiz-adv-x="897" d="M74 1034q0 -25 15 -40t38 -15h162q23 0 39 15.5t16 39.5v117q0 23 -16.5 39t-38.5 16h-72q-33 -2 -37 45q0 37 26.5 58.5t53.5 21.5h29q12 0 21 11.5t9 27.5v25q0 14 -9 26.5t-21 12.5h-29q-63 0 -124.5 -55.5t-61.5 -172.5v-172zM494 1034q0 -25 15 -40t38 -15h162 q23 0 39 15.5t16 39.5v117q0 23 -16.5 39t-38.5 16h-72q-35 -2 -37 45q0 37 26.5 58.5t53.5 21.5h29q12 0 21 11.5t9 27.5v25q0 14 -9 26.5t-21 12.5h-29q-63 0 -124.5 -55.5t-61.5 -172.5v-172z" />
<glyph unicode="&#x201d;" horiz-adv-x="897" d="M131 1280q0 -25 15.5 -40t39.5 -15h72q33 2 37 -45q0 -37 -27.5 -58.5t-52.5 -21.5h-29q-12 0 -21 -12.5t-9 -26.5v-25q0 -16 9 -27.5t21 -11.5h29q61 0 123.5 54.5t62.5 173.5v172q0 23 -16 39t-37 16h-162q-25 0 -40 -16.5t-15 -38.5v-117zM551 1280q0 -25 15.5 -40 t39.5 -15h72q35 2 37 -45q0 -37 -28 -58.5t-52 -21.5h-29q-12 0 -21.5 -12.5t-9.5 -26.5v-25q0 -16 9.5 -27.5t21.5 -11.5h29q61 0 123.5 54.5t62.5 173.5v172q0 23 -16.5 39t-36.5 16h-162q-25 0 -40 -16.5t-15 -38.5v-117z" />
<glyph unicode="&#x201e;" horiz-adv-x="897" d="M74 55q0 -25 15 -40t40 -15h72q33 2 37 -45q0 -37 -28 -58.5t-52 -21.5h-29q-12 0 -21.5 -11t-9.5 -28v-24q0 -14 9.5 -26.5t21.5 -12.5h29q61 0 123.5 55t62.5 172v172q0 23 -16.5 39t-36.5 16h-162q-25 0 -40 -16t-15 -39v-117zM494 55q0 -25 15 -40t40 -15h72 q35 2 36 -45q0 -37 -27.5 -58.5t-51.5 -21.5h-29q-12 0 -21.5 -11t-9.5 -28v-24q0 -14 9.5 -26.5t21.5 -12.5h29q61 0 123.5 55t62.5 172v172q0 23 -16.5 39t-36.5 16h-162q-25 0 -40 -16t-15 -39v-117z" />
<glyph unicode="&#x2022;" horiz-adv-x="698" d="M88 549q0 -109 77 -184.5t183 -75.5q104 0 182 75.5t78 184.5q0 106 -77.5 183t-182.5 77q-109 0 -184.5 -77t-75.5 -183z" />
<glyph unicode="&#x2026;" horiz-adv-x="1447" d="M102 57q0 -25 17.5 -41t42.5 -16h151q25 0 42.5 16.5t17.5 40.5v113q0 23 -17.5 40t-42.5 17h-151q-25 0 -42.5 -17t-17.5 -40v-113zM588 57q0 -25 17.5 -41t41.5 -16h152q25 0 42 16.5t17 40.5v113q0 23 -17.5 40t-41.5 17h-152q-25 0 -42 -17t-17 -40v-113zM1073 57 q0 -25 17.5 -41t42.5 -16h151q25 0 42 16.5t17 40.5v113q0 23 -17 40t-42 17h-151q-25 0 -42.5 -17t-17.5 -40v-113z" />
<glyph unicode="&#x202f;" horiz-adv-x="377" />
<glyph unicode="&#x2039;" horiz-adv-x="684" d="M129 489q2 -27 29 -47l327 -321q8 -10 24.5 -11t25.5 -1q18 0 28 14t10 33v96q0 20 -8 32.5t-24 30.5l-224 220l224 219q16 16 24 28.5t8 34.5v96q0 16 -10 32t-28 16q-8 0 -24.5 -2.5t-25.5 -10.5l-327 -321q-27 -20 -29 -47v-91z" />
<glyph unicode="&#x203a;" horiz-adv-x="684" d="M109 156q0 -18 9 -32.5t29 -14.5q6 0 22.5 1t27.5 11l327 321q27 20 29 47v91q-2 27 -29 47l-327 321q-10 8 -26.5 10.5t-23.5 2.5q-20 0 -29 -15.5t-9 -32.5v-96q0 -23 7 -35t25 -28l224 -219l-224 -220q-18 -18 -25 -30.5t-7 -32.5v-96z" />
<glyph unicode="&#x205f;" horiz-adv-x="471" />
<glyph unicode="&#x20ac;" horiz-adv-x="1222" d="M59 504q0 -25 16.5 -42.5t41.5 -17.5h127q27 -223 145.5 -365t349.5 -142q174 0 277.5 79.5t138.5 182.5q4 12 4 24q-4 33 -35 47l-102 49q-10 4 -21 5q-39 0 -55 -35q-53 -143 -207 -139q-80 0 -158.5 63t-99.5 231h224q23 0 40 17.5t17 42.5v84q0 25 -17.5 42t-39.5 17 h-240v139h377q23 0 40 17.5t17 42.5v84q0 25 -17.5 42t-39.5 17h-363q20 166 99 230.5t159 64.5q152 4 207 -139q14 -35 55 -35q10 0 21 4l102 49q33 14 35 47q2 12 -4 25q-35 100 -138.5 181t-277.5 81q-231 0 -351 -143.5t-146 -364.5h-123q-25 0 -41.5 -17.5t-16.5 -41.5 v-84q0 -25 16.5 -42.5t41.5 -17.5h114v-139h-114q-25 0 -41.5 -17.5t-16.5 -41.5v-84z" />
<glyph unicode="&#x2122;" horiz-adv-x="1388" d="M45 1343q0 -37 43 -38h125v-527q0 -18 12.5 -31.5t30.5 -13.5h78q16 0 28.5 13.5t12.5 31.5v529h127q43 4 43 39v61q0 39 -43 43h-414q-43 -4 -43 -43v-64zM610 778q0 -18 12.5 -31.5t30.5 -13.5h70q18 0 30.5 13.5t12.5 31.5v428l139 -430q4 -14 14.5 -28.5t28.5 -14.5 h21q16 0 26.5 14.5t16.5 28.5l139 430v-428q0 -18 12.5 -31.5t30.5 -13.5h70q39 4 41 45v629q-2 41 -41 45h-146q-18 0 -27.5 -12.5t-15.5 -30.5l-117 -367l-118 367q-8 18 -16.5 30.5t-24.5 12.5h-146q-18 0 -30.5 -13.5t-12.5 -31.5v-629z" />
<glyph unicode="&#xe000;" horiz-adv-x="1095" d="M0 0v1096h1096v-1096h-1096z" />
<glyph unicode="&#xfb01;" horiz-adv-x="1034" d="M102 57q0 -25 17.5 -41t42.5 -16h112q25 0 42.5 16.5t17.5 40.5v779h194q23 0 40.5 17t17.5 42v90q0 25 -17.5 42t-40.5 17h-194v80q0 49 17.5 85t97.5 36h423q23 0 40.5 17.5t17.5 42.5v90q0 25 -17.5 42t-40.5 17h-491q-117 0 -198 -77t-81 -187v-1133zM698 57 q0 -25 17.5 -41t42.5 -16h112q25 0 42.5 16.5t17.5 40.5v981q0 23 -17.5 40.5t-42.5 17.5h-112q-25 0 -42.5 -17.5t-17.5 -40.5v-981z" />
<glyph unicode="&#xfb02;" horiz-adv-x="1052" d="M102 57q0 -25 17.5 -41t42.5 -16h112q25 0 42.5 16.5t17.5 40.5v779h170q23 0 40 17t17 42v90q0 25 -17.5 42t-39.5 17h-170v80q0 49 17.5 85t97.5 36h268v-1188q0 -25 17.5 -41t41.5 -16h113q25 0 42 16.5t17 40.5v1338q0 25 -17.5 42t-39.5 17h-510q-117 0 -198 -77 t-81 -187v-1133z" />
</font>
</defs>
</svg>
